<svg width="340" height="85" viewBox="0 0 340 85" fill="none" xmlns="http://www.w3.org/2000/svg">
<path d="M110.5 53.5V30.2273H116.818V48.4091H126.227V53.5H110.5ZM133.736 53.7727C132.622 53.7727 131.637 53.5909 130.781 53.2273C129.933 52.8561 129.266 52.2955 128.781 51.5455C128.296 50.7955 128.054 49.8409 128.054 48.6818C128.054 47.7273 128.217 46.9129 128.543 46.2386C128.868 45.5568 129.323 45 129.906 44.5682C130.49 44.1364 131.168 43.8068 131.94 43.5795C132.721 43.3523 133.562 43.2045 134.463 43.1364C135.44 43.0606 136.224 42.9697 136.815 42.8636C137.414 42.75 137.846 42.5947 138.111 42.3977C138.376 42.1932 138.509 41.9242 138.509 41.5909V41.5455C138.509 41.0909 138.334 40.7424 137.986 40.5C137.637 40.2576 137.19 40.1364 136.645 40.1364C136.046 40.1364 135.558 40.2689 135.179 40.5341C134.808 40.7917 134.584 41.1894 134.509 41.7273H128.736C128.812 40.6667 129.149 39.6894 129.747 38.7955C130.353 37.8939 131.236 37.1742 132.395 36.6364C133.554 36.0909 135.001 35.8182 136.736 35.8182C137.986 35.8182 139.107 35.9659 140.099 36.2614C141.092 36.5492 141.937 36.9545 142.634 37.4773C143.33 37.9924 143.861 38.5985 144.224 39.2955C144.596 39.9848 144.781 40.7348 144.781 41.5455V53.5H138.918V51.0455H138.781C138.433 51.697 138.009 52.2235 137.509 52.625C137.016 53.0265 136.452 53.3182 135.815 53.5C135.187 53.6818 134.493 53.7727 133.736 53.7727ZM135.781 49.8182C136.259 49.8182 136.705 49.7197 137.122 49.5227C137.546 49.3258 137.891 49.0417 138.156 48.6705C138.421 48.2992 138.554 47.8485 138.554 47.3182V45.8636C138.387 45.9318 138.209 45.9962 138.02 46.0568C137.838 46.1174 137.641 46.1742 137.429 46.2273C137.224 46.2803 137.005 46.3295 136.77 46.375C136.543 46.4205 136.304 46.4621 136.054 46.5C135.569 46.5758 135.171 46.7008 134.861 46.875C134.558 47.0417 134.33 47.25 134.179 47.5C134.035 47.7424 133.963 48.0152 133.963 48.3182C133.963 48.803 134.134 49.1742 134.474 49.4318C134.815 49.6894 135.251 49.8182 135.781 49.8182ZM147.778 53.5V36.0455H153.869V39.3636H154.051C154.369 38.1364 154.873 37.2386 155.562 36.6705C156.259 36.1023 157.074 35.8182 158.006 35.8182C158.278 35.8182 158.547 35.8409 158.812 35.8864C159.085 35.9242 159.347 35.9811 159.597 36.0568V41.4091C159.286 41.303 158.903 41.2235 158.449 41.1705C157.994 41.1174 157.604 41.0909 157.278 41.0909C156.665 41.0909 156.112 41.2311 155.619 41.5114C155.134 41.7841 154.752 42.1705 154.472 42.6705C154.191 43.1629 154.051 43.7424 154.051 44.4091V53.5H147.778ZM165.705 53.7727C164.591 53.7727 163.606 53.5909 162.75 53.2273C161.902 52.8561 161.235 52.2955 160.75 51.5455C160.265 50.7955 160.023 49.8409 160.023 48.6818C160.023 47.7273 160.186 46.9129 160.511 46.2386C160.837 45.5568 161.292 45 161.875 44.5682C162.458 44.1364 163.136 43.8068 163.909 43.5795C164.689 43.3523 165.53 43.2045 166.432 43.1364C167.409 43.0606 168.193 42.9697 168.784 42.8636C169.383 42.75 169.814 42.5947 170.08 42.3977C170.345 42.1932 170.477 41.9242 170.477 41.5909V41.5455C170.477 41.0909 170.303 40.7424 169.955 40.5C169.606 40.2576 169.159 40.1364 168.614 40.1364C168.015 40.1364 167.527 40.2689 167.148 40.5341C166.777 40.7917 166.553 41.1894 166.477 41.7273H160.705C160.78 40.6667 161.117 39.6894 161.716 38.7955C162.322 37.8939 163.205 37.1742 164.364 36.6364C165.523 36.0909 166.97 35.8182 168.705 35.8182C169.955 35.8182 171.076 35.9659 172.068 36.2614C173.061 36.5492 173.905 36.9545 174.602 37.4773C175.299 37.9924 175.83 38.5985 176.193 39.2955C176.564 39.9848 176.75 40.7348 176.75 41.5455V53.5H170.886V51.0455H170.75C170.402 51.697 169.977 52.2235 169.477 52.625C168.985 53.0265 168.42 53.3182 167.784 53.5C167.155 53.6818 166.462 53.7727 165.705 53.7727ZM167.75 49.8182C168.227 49.8182 168.674 49.7197 169.091 49.5227C169.515 49.3258 169.86 49.0417 170.125 48.6705C170.39 48.2992 170.523 47.8485 170.523 47.3182V45.8636C170.356 45.9318 170.178 45.9962 169.989 46.0568C169.807 46.1174 169.61 46.1742 169.398 46.2273C169.193 46.2803 168.973 46.3295 168.739 46.375C168.511 46.4205 168.273 46.4621 168.023 46.5C167.538 46.5758 167.14 46.7008 166.83 46.875C166.527 47.0417 166.299 47.25 166.148 47.5C166.004 47.7424 165.932 48.0152 165.932 48.3182C165.932 48.803 166.102 49.1742 166.443 49.4318C166.784 49.6894 167.22 49.8182 167.75 49.8182ZM196.713 36.0455L190.849 53.5H183.577L177.713 36.0455H184.304L187.122 47.5909H187.304L190.122 36.0455H196.713ZM206.33 53.8182C204.466 53.8182 202.86 53.4621 201.511 52.75C200.17 52.0303 199.136 51 198.409 49.6591C197.689 48.3106 197.33 46.697 197.33 44.8182C197.33 43.0152 197.693 41.4394 198.42 40.0909C199.148 38.7424 200.174 37.6932 201.5 36.9432C202.826 36.1932 204.39 35.8182 206.193 35.8182C207.511 35.8182 208.705 36.0227 209.773 36.4318C210.841 36.8409 211.754 37.4356 212.511 38.2159C213.269 38.9886 213.852 39.928 214.261 41.0341C214.67 42.1402 214.875 43.3864 214.875 44.7727V46.2273H199.284V42.7727H209.102C209.095 42.2727 208.966 41.8333 208.716 41.4545C208.473 41.0682 208.144 40.7689 207.727 40.5568C207.318 40.3371 206.852 40.2273 206.33 40.2273C205.822 40.2273 205.356 40.3371 204.932 40.5568C204.508 40.7689 204.167 41.0644 203.909 41.4432C203.659 41.822 203.527 42.2652 203.511 42.7727V46.5C203.511 47.0606 203.629 47.5606 203.864 48C204.098 48.4394 204.436 48.7841 204.875 49.0341C205.314 49.2841 205.845 49.4091 206.466 49.4091C206.898 49.4091 207.292 49.3485 207.648 49.2273C208.011 49.1061 208.322 48.9318 208.58 48.7045C208.837 48.4697 209.027 48.1894 209.148 47.8636H214.875C214.678 49.0758 214.212 50.1288 213.477 51.0227C212.742 51.9091 211.769 52.5985 210.557 53.0909C209.352 53.5758 207.943 53.8182 206.33 53.8182ZM223.707 30.2273V53.5H217.435V30.2273H223.707ZM252.199 37.6591C252.009 37.0455 251.748 36.4962 251.415 36.0114C251.089 35.5189 250.695 35.0985 250.233 34.75C249.778 34.4015 249.256 34.1402 248.665 33.9659C248.074 33.7841 247.43 33.6932 246.733 33.6932C245.483 33.6932 244.369 34.0076 243.392 34.6364C242.415 35.2652 241.646 36.1894 241.085 37.4091C240.532 38.6212 240.256 40.0985 240.256 41.8409C240.256 43.5985 240.532 45.0871 241.085 46.3068C241.638 47.5265 242.407 48.4545 243.392 49.0909C244.377 49.7197 245.521 50.0341 246.824 50.0341C248.006 50.0341 249.028 49.8068 249.892 49.3523C250.763 48.8977 251.434 48.2538 251.903 47.4205C252.373 46.5795 252.608 45.5947 252.608 44.4659L253.562 44.6136H247.244V41.3182H256.688V44.1136C256.688 46.1061 256.263 47.8295 255.415 49.2841C254.566 50.7386 253.4 51.8598 251.915 52.6477C250.43 53.428 248.725 53.8182 246.801 53.8182C244.657 53.8182 242.775 53.3371 241.153 52.375C239.54 51.4053 238.278 50.0303 237.369 48.25C236.468 46.4621 236.017 44.3409 236.017 41.8864C236.017 40.0076 236.282 38.3295 236.812 36.8523C237.35 35.375 238.1 34.1212 239.062 33.0909C240.025 32.053 241.153 31.2652 242.449 30.7273C243.744 30.1818 245.153 29.9091 246.676 29.9091C247.964 29.9091 249.165 30.0985 250.278 30.4773C251.392 30.8485 252.381 31.3788 253.244 32.0682C254.116 32.7576 254.831 33.5758 255.392 34.5227C255.953 35.4697 256.32 36.5152 256.494 37.6591H252.199ZM265.605 53.8523C264.499 53.8523 263.503 53.6553 262.616 53.2614C261.738 52.8598 261.041 52.2689 260.526 51.4886C260.018 50.7083 259.764 49.7462 259.764 48.6023C259.764 47.6174 259.946 46.803 260.31 46.1591C260.673 45.5152 261.17 45 261.798 44.6136C262.427 44.2273 263.135 43.9356 263.923 43.7386C264.719 43.5341 265.541 43.3864 266.389 43.2955C267.412 43.1894 268.241 43.0947 268.878 43.0114C269.514 42.9205 269.976 42.7841 270.264 42.6023C270.56 42.4129 270.707 42.1212 270.707 41.7273V41.6591C270.707 40.803 270.454 40.1402 269.946 39.6705C269.438 39.2008 268.707 38.9659 267.753 38.9659C266.745 38.9659 265.946 39.1856 265.355 39.625C264.772 40.0644 264.378 40.5833 264.173 41.1818L260.332 40.6364C260.635 39.5758 261.135 38.6894 261.832 37.9773C262.529 37.2576 263.382 36.7197 264.389 36.3636C265.397 36 266.51 35.8182 267.73 35.8182C268.571 35.8182 269.408 35.9167 270.241 36.1136C271.075 36.3106 271.836 36.6364 272.526 37.0909C273.215 37.5379 273.768 38.1477 274.185 38.9205C274.609 39.6932 274.821 40.6591 274.821 41.8182V53.5H270.866V51.1023H270.73C270.48 51.5871 270.128 52.0417 269.673 52.4659C269.226 52.8826 268.662 53.2197 267.98 53.4773C267.306 53.7273 266.514 53.8523 265.605 53.8523ZM266.673 50.8295C267.499 50.8295 268.215 50.6667 268.821 50.3409C269.427 50.0076 269.893 49.5682 270.219 49.0227C270.552 48.4773 270.719 47.8826 270.719 47.2386V45.1818C270.59 45.2879 270.37 45.3864 270.06 45.4773C269.757 45.5682 269.416 45.6477 269.037 45.7159C268.658 45.7841 268.283 45.8447 267.912 45.8977C267.541 45.9508 267.219 45.9962 266.946 46.0341C266.332 46.1174 265.783 46.2538 265.298 46.4432C264.813 46.6326 264.431 46.8977 264.151 47.2386C263.87 47.572 263.73 48.0038 263.73 48.5341C263.73 49.2917 264.007 49.8636 264.56 50.25C265.113 50.6364 265.817 50.8295 266.673 50.8295ZM283.071 30.2273V53.5H278.957V30.2273H283.071ZM292.324 53.8523C291.218 53.8523 290.222 53.6553 289.335 53.2614C288.456 52.8598 287.759 52.2689 287.244 51.4886C286.737 50.7083 286.483 49.7462 286.483 48.6023C286.483 47.6174 286.665 46.803 287.028 46.1591C287.392 45.5152 287.888 45 288.517 44.6136C289.146 44.2273 289.854 43.9356 290.642 43.7386C291.438 43.5341 292.259 43.3864 293.108 43.2955C294.131 43.1894 294.96 43.0947 295.597 43.0114C296.233 42.9205 296.695 42.7841 296.983 42.6023C297.278 42.4129 297.426 42.1212 297.426 41.7273V41.6591C297.426 40.803 297.172 40.1402 296.665 39.6705C296.157 39.2008 295.426 38.9659 294.472 38.9659C293.464 38.9659 292.665 39.1856 292.074 39.625C291.491 40.0644 291.097 40.5833 290.892 41.1818L287.051 40.6364C287.354 39.5758 287.854 38.6894 288.551 37.9773C289.248 37.2576 290.1 36.7197 291.108 36.3636C292.116 36 293.229 35.8182 294.449 35.8182C295.29 35.8182 296.127 35.9167 296.96 36.1136C297.794 36.3106 298.555 36.6364 299.244 37.0909C299.934 37.5379 300.487 38.1477 300.903 38.9205C301.328 39.6932 301.54 40.6591 301.54 41.8182V53.5H297.585V51.1023H297.449C297.199 51.5871 296.847 52.0417 296.392 52.4659C295.945 52.8826 295.381 53.2197 294.699 53.4773C294.025 53.7273 293.233 53.8523 292.324 53.8523ZM293.392 50.8295C294.218 50.8295 294.934 50.6667 295.54 50.3409C296.146 50.0076 296.612 49.5682 296.938 49.0227C297.271 48.4773 297.438 47.8826 297.438 47.2386V45.1818C297.309 45.2879 297.089 45.3864 296.778 45.4773C296.475 45.5682 296.134 45.6477 295.756 45.7159C295.377 45.7841 295.002 45.8447 294.631 45.8977C294.259 45.9508 293.938 45.9962 293.665 46.0341C293.051 46.1174 292.502 46.2538 292.017 46.4432C291.532 46.6326 291.15 46.8977 290.869 47.2386C290.589 47.572 290.449 48.0038 290.449 48.5341C290.449 49.2917 290.725 49.8636 291.278 50.25C291.831 50.6364 292.536 50.8295 293.392 50.8295ZM309.04 36.0455L312.562 42.4886L316.142 36.0455H320.494L315.233 44.7727L320.585 53.5H316.256L312.562 47.2159L308.903 53.5H304.54L309.858 44.7727L304.676 36.0455H309.04ZM326.233 60.0455C325.672 60.0455 325.153 60 324.676 59.9091C324.206 59.8258 323.831 59.7273 323.551 59.6136L324.506 56.4091C325.104 56.5833 325.638 56.6667 326.108 56.6591C326.578 56.6515 326.991 56.5038 327.347 56.2159C327.71 55.9356 328.017 55.4659 328.267 54.8068L328.619 53.8636L322.29 36.0455H326.653L330.676 49.2273H330.858L334.892 36.0455H339.267L332.278 55.6136C331.953 56.5379 331.521 57.3295 330.983 57.9886C330.445 58.6553 329.786 59.1629 329.006 59.5114C328.233 59.8674 327.309 60.0455 326.233 60.0455Z" fill="black"/>
<path d="M110.5 53.5H109.5V54.5H110.5V53.5ZM110.5 30.2273V29.2273H109.5V30.2273H110.5ZM116.818 30.2273H117.818V29.2273H116.818V30.2273ZM116.818 48.4091H115.818V49.4091H116.818V48.4091ZM126.227 48.4091H127.227V47.4091H126.227V48.4091ZM126.227 53.5V54.5H127.227V53.5H126.227ZM111.5 53.5V30.2273H109.5V53.5H111.5ZM110.5 31.2273H116.818V29.2273H110.5V31.2273ZM115.818 30.2273V48.4091H117.818V30.2273H115.818ZM116.818 49.4091H126.227V47.4091H116.818V49.4091ZM125.227 48.4091V53.5H127.227V48.4091H125.227ZM126.227 52.5H110.5V54.5H126.227V52.5ZM130.781 53.2273L130.38 54.1435L130.39 54.1477L130.781 53.2273ZM128.781 51.5455L127.941 52.0884L127.941 52.0884L128.781 51.5455ZM128.543 46.2386L129.443 46.6737L129.445 46.6697L128.543 46.2386ZM129.906 44.5682L130.501 45.3719L130.501 45.3719L129.906 44.5682ZM131.94 43.5795L131.661 42.6194L131.658 42.6202L131.94 43.5795ZM134.463 43.1364L134.538 44.1335L134.54 44.1334L134.463 43.1364ZM136.815 42.8636L136.992 43.848L137.002 43.8461L136.815 42.8636ZM138.111 42.3977L138.707 43.2005L138.714 43.1951L138.722 43.1895L138.111 42.3977ZM137.986 40.5L137.415 41.3209L137.415 41.3209L137.986 40.5ZM135.179 40.5341L135.749 41.3557L135.752 41.3533L135.179 40.5341ZM134.509 41.7273V42.7273H135.378L135.499 41.8667L134.509 41.7273ZM128.736 41.7273L127.738 41.656L127.662 42.7273H128.736V41.7273ZM129.747 38.7955L128.917 38.2375L128.916 38.2391L129.747 38.7955ZM132.395 36.6364L132.816 37.5435L132.821 37.5412L132.395 36.6364ZM140.099 36.2614L139.814 37.2198L139.821 37.2218L140.099 36.2614ZM142.634 37.4773L142.034 38.2773L142.039 38.2814L142.634 37.4773ZM144.224 39.2955L143.338 39.7581L143.344 39.7696L144.224 39.2955ZM144.781 53.5V54.5H145.781V53.5H144.781ZM138.918 53.5H137.918V54.5H138.918V53.5ZM138.918 51.0455H139.918V50.0455H138.918V51.0455ZM138.781 51.0455V50.0455H138.182L137.899 50.5738L138.781 51.0455ZM137.509 52.625L136.882 51.8453L136.877 51.85L137.509 52.625ZM135.815 53.5L135.541 52.5385L135.538 52.5394L135.815 53.5ZM137.122 49.5227L136.701 48.6157L136.695 48.6187L137.122 49.5227ZM138.156 48.6705L137.343 48.0892L137.343 48.0892L138.156 48.6705ZM138.554 45.8636H139.554V44.3741L138.175 44.9381L138.554 45.8636ZM138.02 46.0568L137.715 45.1043L137.704 45.1081L138.02 46.0568ZM137.429 46.2273L137.186 45.2571L137.178 45.2593L137.429 46.2273ZM136.77 46.375L136.58 45.3932L136.574 45.3944L136.77 46.375ZM136.054 46.5L135.904 45.5113L135.9 45.512L136.054 46.5ZM134.861 46.875L135.343 47.7512L135.35 47.7471L134.861 46.875ZM134.179 47.5L133.324 46.9817L133.319 46.9895L134.179 47.5ZM134.474 49.4318L135.077 48.634L135.077 48.634L134.474 49.4318ZM133.736 52.7727C132.731 52.7727 131.883 52.6087 131.172 52.3069L130.39 54.1477C131.392 54.5731 132.514 54.7727 133.736 54.7727V52.7727ZM131.182 52.3111C130.506 52.0155 129.995 51.5814 129.621 51.0026L127.941 52.0884C128.537 53.0095 129.359 53.6966 130.38 54.1434L131.182 52.3111ZM129.621 51.0026C129.268 50.456 129.054 49.7049 129.054 48.6818H127.054C127.054 49.9769 127.325 51.1349 127.941 52.0884L129.621 51.0026ZM129.054 48.6818C129.054 47.8378 129.198 47.1803 129.443 46.6737L127.642 45.8036C127.235 46.6455 127.054 47.6167 127.054 48.6818H129.054ZM129.445 46.6697C129.703 46.1291 130.055 45.7024 130.501 45.3719L129.311 43.7644C128.591 44.2976 128.034 44.9845 127.64 45.8075L129.445 46.6697ZM130.501 45.3719C130.98 45.0172 131.55 44.7367 132.223 44.5389L131.658 42.6202C130.785 42.8769 129.999 43.2555 129.311 43.7644L130.501 45.3719ZM132.22 44.5396C132.927 44.3338 133.699 44.197 134.538 44.1335L134.388 42.1392C133.425 42.212 132.515 42.3707 131.661 42.6194L132.22 44.5396ZM134.54 44.1334C135.533 44.0564 136.354 43.9624 136.992 43.8479L136.639 41.8794C136.095 41.977 135.348 42.0648 134.386 42.1394L134.54 44.1334ZM137.002 43.8461C137.644 43.7242 138.257 43.5348 138.707 43.2005L137.514 41.595C137.434 41.6546 137.184 41.7758 136.629 41.8812L137.002 43.8461ZM138.722 43.1895C139.231 42.7967 139.509 42.2359 139.509 41.5909H137.509C137.509 41.6077 137.507 41.6146 137.507 41.6139C137.507 41.6136 137.507 41.612 137.508 41.6094C137.509 41.6067 137.511 41.6037 137.512 41.6005C137.514 41.5972 137.515 41.5945 137.517 41.5923C137.518 41.5901 137.519 41.589 137.519 41.5891C137.519 41.5891 137.518 41.5906 137.515 41.5934C137.512 41.5962 137.507 41.6004 137.5 41.6059L138.722 43.1895ZM139.509 41.5909V41.5455H137.509V41.5909H139.509ZM139.509 41.5455C139.509 40.7909 139.196 40.1235 138.557 39.6791L137.415 41.3209C137.464 41.3553 137.478 41.379 137.483 41.3904C137.49 41.4044 137.509 41.4476 137.509 41.5455H139.509ZM138.557 39.6791C137.999 39.2908 137.337 39.1364 136.645 39.1364V41.1364C137.044 41.1364 137.276 41.2243 137.415 41.3209L138.557 39.6791ZM136.645 39.1364C135.901 39.1364 135.196 39.3017 134.606 39.7149L135.752 41.3533C135.92 41.2362 136.191 41.1364 136.645 41.1364V39.1364ZM134.609 39.7125C133.963 40.1607 133.624 40.8344 133.518 41.5878L135.499 41.8667C135.544 41.5444 135.653 41.4226 135.749 41.3557L134.609 39.7125ZM134.509 40.7273H128.736V42.7273H134.509V40.7273ZM129.733 41.7985C129.796 40.9135 130.075 40.103 130.578 39.3518L128.916 38.2391C128.222 39.2758 127.827 40.4199 127.738 41.656L129.733 41.7985ZM130.577 39.3534C131.064 38.6283 131.793 38.0182 132.816 37.5435L131.974 35.7293C130.679 36.3303 129.642 37.1596 128.917 38.2375L130.577 39.3534ZM132.821 37.5412C133.808 37.0765 135.099 36.8182 136.736 36.8182V34.8182C134.903 34.8182 133.3 35.1053 131.969 35.7315L132.821 37.5412ZM136.736 36.8182C137.908 36.8182 138.931 36.9569 139.814 37.2198L140.385 35.3029C139.283 34.9749 138.063 34.8182 136.736 34.8182V36.8182ZM139.821 37.2218C140.718 37.4821 141.449 37.8391 142.034 38.2773L143.234 36.6773C142.424 36.07 141.465 35.6163 140.378 35.301L139.821 37.2218ZM142.039 38.2814C142.627 38.7157 143.051 39.2089 143.338 39.758L145.111 38.8329C144.67 37.988 144.034 37.2691 143.228 36.6731L142.039 38.2814ZM143.344 39.7696C143.634 40.308 143.781 40.8943 143.781 41.5455H145.781C145.781 40.5754 145.557 39.6617 145.105 38.8214L143.344 39.7696ZM143.781 41.5455V53.5H145.781V41.5455H143.781ZM144.781 52.5H138.918V54.5H144.781V52.5ZM139.918 53.5V51.0455H137.918V53.5H139.918ZM138.918 50.0455H138.781V52.0455H138.918V50.0455ZM137.899 50.5738C137.605 51.1244 137.262 51.5401 136.882 51.8453L138.135 53.4047C138.755 52.9069 139.261 52.2695 139.663 51.5171L137.899 50.5738ZM136.877 51.85C136.494 52.1622 136.052 52.3924 135.541 52.5385L136.09 54.4615C136.851 54.244 137.538 53.8909 138.14 53.4L136.877 51.85ZM135.538 52.5394C135.012 52.6913 134.414 52.7727 133.736 52.7727V54.7727C134.573 54.7727 135.361 54.6723 136.093 54.4606L135.538 52.5394ZM135.781 50.8182C136.401 50.8182 136.994 50.6892 137.55 50.4268L136.695 48.6187C136.417 48.7502 136.116 48.8182 135.781 48.8182V50.8182ZM137.543 50.4297C138.12 50.1619 138.602 49.7673 138.97 49.2517L137.343 48.0892C137.18 48.316 136.973 48.4896 136.701 48.6157L137.543 50.4297ZM138.97 49.2517C139.375 48.6845 139.554 48.0219 139.554 47.3182H137.554C137.554 47.675 137.468 47.914 137.343 48.0892L138.97 49.2517ZM139.554 47.3182V45.8636H137.554V47.3182H139.554ZM138.175 44.9381C138.035 44.9954 137.882 45.051 137.715 45.1044L138.325 47.0092C138.536 46.9415 138.739 46.8682 138.933 46.7892L138.175 44.9381ZM137.704 45.1081C137.549 45.1596 137.377 45.2095 137.186 45.2571L137.672 47.1974C137.905 47.139 138.127 47.0752 138.336 47.0055L137.704 45.1081ZM137.178 45.2593C136.996 45.3065 136.797 45.3512 136.58 45.3932L136.96 47.3568C137.213 47.3079 137.453 47.2542 137.68 47.1953L137.178 45.2593ZM136.574 45.3944C136.363 45.4365 136.14 45.4755 135.904 45.5113L136.204 47.4887C136.468 47.4487 136.722 47.4044 136.966 47.3556L136.574 45.3944ZM135.9 45.512C135.338 45.5997 134.817 45.7529 134.372 46.0029L135.35 47.7471C135.526 47.6486 135.8 47.5518 136.208 47.488L135.9 45.512ZM134.379 45.9988C133.95 46.2344 133.582 46.5564 133.324 46.9817L135.034 48.0183C135.079 47.9436 135.165 47.8489 135.343 47.7512L134.379 45.9988ZM133.319 46.9895C133.077 47.3979 132.963 47.8494 132.963 48.3182H134.963C134.963 48.1809 134.993 48.0869 135.039 48.0105L133.319 46.9895ZM132.963 48.3182C132.963 49.0683 133.244 49.7558 133.872 50.2297L135.077 48.634C135.023 48.5927 134.963 48.5378 134.963 48.3182H132.963ZM133.872 50.2297C134.424 50.6473 135.087 50.8182 135.781 50.8182V48.8182C135.415 48.8182 135.206 48.7314 135.077 48.634L133.872 50.2297ZM147.778 53.5H146.778V54.5H147.778V53.5ZM147.778 36.0455V35.0455H146.778V36.0455H147.778ZM153.869 36.0455H154.869V35.0455H153.869V36.0455ZM153.869 39.3636H152.869V40.3636H153.869V39.3636ZM154.051 39.3636V40.3636H154.825L155.019 39.6146L154.051 39.3636ZM155.562 36.6705L154.931 35.8954L154.926 35.8988L155.562 36.6705ZM158.812 35.8864L158.644 36.872L158.659 36.8747L158.675 36.8769L158.812 35.8864ZM159.597 36.0568H160.597V35.3149L159.887 35.0998L159.597 36.0568ZM159.597 41.4091L159.273 42.3554L160.597 42.8072V41.4091H159.597ZM158.449 41.1705L158.565 40.1772L158.565 40.1772L158.449 41.1705ZM155.619 41.5114L156.11 42.3829L156.114 42.3804L155.619 41.5114ZM154.472 42.6705L155.341 43.1652L155.344 43.1595L154.472 42.6705ZM154.051 53.5V54.5H155.051V53.5H154.051ZM148.778 53.5V36.0455H146.778V53.5H148.778ZM147.778 37.0455H153.869V35.0455H147.778V37.0455ZM152.869 36.0455V39.3636H154.869V36.0455H152.869ZM153.869 40.3636H154.051V38.3636H153.869V40.3636ZM155.019 39.6146C155.306 38.5088 155.727 37.8304 156.199 37.4421L154.926 35.8988C154.019 36.6469 153.433 37.764 153.083 39.1127L155.019 39.6146ZM156.194 37.4455C156.706 37.0284 157.295 36.8182 158.006 36.8182V34.8182C156.853 34.8182 155.813 35.1761 154.931 35.8954L156.194 37.4455ZM158.006 36.8182C158.223 36.8182 158.435 36.8362 158.644 36.872L158.981 34.9007C158.66 34.8456 158.334 34.8182 158.006 34.8182V36.8182ZM158.675 36.8769C158.899 36.908 159.109 36.954 159.307 37.0138L159.887 35.0998C159.584 35.0081 159.272 34.9405 158.95 34.8959L158.675 36.8769ZM158.597 36.0568V41.4091H160.597V36.0568H158.597ZM159.92 40.4627C159.521 40.3267 159.064 40.2355 158.565 40.1772L158.333 42.1637C158.742 42.2115 159.051 42.2793 159.273 42.3554L159.92 40.4627ZM158.565 40.1772C158.086 40.1213 157.655 40.0909 157.278 40.0909V42.0909C157.553 42.0909 157.903 42.1135 158.333 42.1637L158.565 40.1772ZM157.278 40.0909C156.506 40.0909 155.78 40.2691 155.125 40.6423L156.114 42.3804C156.443 42.193 156.823 42.0909 157.278 42.0909V40.0909ZM155.129 40.6398C154.479 41.0054 153.967 41.5264 153.599 42.1814L155.344 43.1595C155.537 42.8145 155.79 42.5628 156.11 42.3829L155.129 40.6398ZM153.603 42.1758C153.222 42.8436 153.051 43.5998 153.051 44.4091H155.051C155.051 43.8851 155.16 43.4821 155.341 43.1652L153.603 42.1758ZM153.051 44.4091V53.5H155.051V44.4091H153.051ZM154.051 52.5H147.778V54.5H154.051V52.5ZM162.75 53.2273L162.349 54.1435L162.359 54.1477L162.75 53.2273ZM160.75 51.5455L159.91 52.0884L159.91 52.0884L160.75 51.5455ZM160.511 46.2386L161.412 46.6737L161.414 46.6697L160.511 46.2386ZM161.875 44.5682L162.47 45.3719L162.47 45.3719L161.875 44.5682ZM163.909 43.5795L163.629 42.6194L163.627 42.6202L163.909 43.5795ZM166.432 43.1364L166.507 44.1335L166.509 44.1334L166.432 43.1364ZM168.784 42.8636L168.961 43.848L168.971 43.8461L168.784 42.8636ZM170.08 42.3977L170.676 43.2005L170.683 43.1951L170.69 43.1895L170.08 42.3977ZM169.955 40.5L169.383 41.3209L169.383 41.3209L169.955 40.5ZM167.148 40.5341L167.718 41.3557L167.721 41.3533L167.148 40.5341ZM166.477 41.7273V42.7273H167.346L167.467 41.8667L166.477 41.7273ZM160.705 41.7273L159.707 41.656L159.631 42.7273H160.705V41.7273ZM161.716 38.7955L160.886 38.2375L160.885 38.2391L161.716 38.7955ZM164.364 36.6364L164.785 37.5435L164.789 37.5412L164.364 36.6364ZM172.068 36.2614L171.783 37.2198L171.79 37.2218L172.068 36.2614ZM174.602 37.4773L174.002 38.2773L174.008 38.2814L174.602 37.4773ZM176.193 39.2955L175.307 39.7581L175.313 39.7696L176.193 39.2955ZM176.75 53.5V54.5H177.75V53.5H176.75ZM170.886 53.5H169.886V54.5H170.886V53.5ZM170.886 51.0455H171.886V50.0455H170.886V51.0455ZM170.75 51.0455V50.0455H170.151L169.868 50.5738L170.75 51.0455ZM169.477 52.625L168.851 51.8453L168.845 51.85L169.477 52.625ZM167.784 53.5L167.509 52.5385L167.506 52.5394L167.784 53.5ZM169.091 49.5227L168.67 48.6157L168.664 48.6187L169.091 49.5227ZM170.125 48.6705L169.311 48.0892L169.311 48.0892L170.125 48.6705ZM170.523 45.8636H171.523V44.3741L170.144 44.9381L170.523 45.8636ZM169.989 46.0568L169.684 45.1043L169.672 45.1081L169.989 46.0568ZM169.398 46.2273L169.155 45.2571L169.147 45.2593L169.398 46.2273ZM168.739 46.375L168.549 45.3932L168.543 45.3944L168.739 46.375ZM168.023 46.5L167.873 45.5113L167.868 45.512L168.023 46.5ZM166.83 46.875L167.311 47.7512L167.319 47.7471L166.83 46.875ZM166.148 47.5L165.292 46.9817L165.288 46.9895L166.148 47.5ZM166.443 49.4318L167.046 48.634L167.046 48.634L166.443 49.4318ZM165.705 52.7727C164.699 52.7727 163.852 52.6087 163.141 52.3069L162.359 54.1477C163.361 54.5731 164.483 54.7727 165.705 54.7727V52.7727ZM163.151 52.3111C162.475 52.0155 161.964 51.5814 161.59 51.0026L159.91 52.0884C160.506 53.0095 161.328 53.6966 162.349 54.1434L163.151 52.3111ZM161.59 51.0026C161.237 50.456 161.023 49.7049 161.023 48.6818H159.023C159.023 49.9769 159.294 51.1349 159.91 52.0884L161.59 51.0026ZM161.023 48.6818C161.023 47.8378 161.167 47.1803 161.412 46.6737L159.611 45.8036C159.204 46.6455 159.023 47.6167 159.023 48.6818H161.023ZM161.414 46.6697C161.672 46.1291 162.023 45.7024 162.47 45.3719L161.28 43.7644C160.56 44.2976 160.002 44.9845 159.609 45.8075L161.414 46.6697ZM162.47 45.3719C162.949 45.0172 163.519 44.7367 164.191 44.5389L163.627 42.6202C162.754 42.8769 161.967 43.2555 161.28 43.7644L162.47 45.3719ZM164.189 44.5396C164.895 44.3338 165.667 44.197 166.507 44.1335L166.356 42.1392C165.393 42.212 164.483 42.3707 163.629 42.6194L164.189 44.5396ZM166.509 44.1334C167.502 44.0564 168.323 43.9624 168.961 43.8479L168.607 41.8794C168.063 41.977 167.316 42.0648 166.355 42.1394L166.509 44.1334ZM168.971 43.8461C169.613 43.7242 170.226 43.5348 170.676 43.2005L169.483 41.595C169.403 41.6546 169.153 41.7758 168.598 41.8812L168.971 43.8461ZM170.69 43.1895C171.2 42.7967 171.477 42.2359 171.477 41.5909H169.477C169.477 41.6077 169.476 41.6146 169.476 41.6139C169.476 41.6136 169.476 41.612 169.477 41.6094C169.478 41.6067 169.479 41.6037 169.481 41.6005C169.482 41.5972 169.484 41.5945 169.486 41.5923C169.487 41.5901 169.488 41.589 169.488 41.5891C169.488 41.5891 169.487 41.5906 169.484 41.5934C169.481 41.5962 169.476 41.6004 169.469 41.6059L170.69 43.1895ZM171.477 41.5909V41.5455H169.477V41.5909H171.477ZM171.477 41.5455C171.477 40.7909 171.164 40.1235 170.526 39.6791L169.383 41.3209C169.433 41.3553 169.446 41.379 169.452 41.3904C169.459 41.4044 169.477 41.4476 169.477 41.5455H171.477ZM170.526 39.6791C169.967 39.2908 169.305 39.1364 168.614 39.1364V41.1364C169.013 41.1364 169.245 41.2243 169.383 41.3209L170.526 39.6791ZM168.614 39.1364C167.87 39.1364 167.164 39.3017 166.574 39.7149L167.721 41.3533C167.889 41.2362 168.16 41.1364 168.614 41.1364V39.1364ZM166.578 39.7125C165.932 40.1607 165.593 40.8344 165.487 41.5878L167.467 41.8667C167.513 41.5444 167.621 41.4226 167.718 41.3557L166.578 39.7125ZM166.477 40.7273H160.705V42.7273H166.477V40.7273ZM161.702 41.7985C161.765 40.9135 162.044 40.103 162.547 39.3518L160.885 38.2391C160.191 39.2758 159.795 40.4199 159.707 41.656L161.702 41.7985ZM162.546 39.3534C163.033 38.6283 163.762 38.0182 164.785 37.5435L163.943 35.7293C162.648 36.3303 161.611 37.1596 160.886 38.2375L162.546 39.3534ZM164.789 37.5412C165.777 37.0765 167.068 36.8182 168.705 36.8182V34.8182C166.872 34.8182 165.269 35.1053 163.938 35.7315L164.789 37.5412ZM168.705 36.8182C169.877 36.8182 170.9 36.9569 171.783 37.2198L172.354 35.3029C171.252 34.9749 170.032 34.8182 168.705 34.8182V36.8182ZM171.79 37.2218C172.687 37.4821 173.418 37.8391 174.002 38.2773L175.202 36.6773C174.393 36.07 173.434 35.6163 172.347 35.301L171.79 37.2218ZM174.008 38.2814C174.595 38.7157 175.02 39.2089 175.307 39.758L177.08 38.8329C176.639 37.988 176.003 37.2691 175.197 36.6731L174.008 38.2814ZM175.313 39.7696C175.603 40.308 175.75 40.8943 175.75 41.5455H177.75C177.75 40.5754 177.526 39.6617 177.074 38.8214L175.313 39.7696ZM175.75 41.5455V53.5H177.75V41.5455H175.75ZM176.75 52.5H170.886V54.5H176.75V52.5ZM171.886 53.5V51.0455H169.886V53.5H171.886ZM170.886 50.0455H170.75V52.0455H170.886V50.0455ZM169.868 50.5738C169.574 51.1244 169.231 51.5401 168.851 51.8453L170.103 53.4047C170.723 52.9069 171.229 52.2695 171.632 51.5171L169.868 50.5738ZM168.845 51.85C168.462 52.1622 168.021 52.3924 167.509 52.5385L168.059 54.4615C168.82 54.244 169.507 53.8909 170.109 53.4L168.845 51.85ZM167.506 52.5394C166.981 52.6913 166.383 52.7727 165.705 52.7727V54.7727C166.542 54.7727 167.33 54.6723 168.062 54.4606L167.506 52.5394ZM167.75 50.8182C168.37 50.8182 168.963 50.6892 169.518 50.4268L168.664 48.6187C168.385 48.7502 168.085 48.8182 167.75 48.8182V50.8182ZM169.512 50.4297C170.089 50.1619 170.57 49.7673 170.939 49.2517L169.311 48.0892C169.149 48.316 168.941 48.4896 168.67 48.6157L169.512 50.4297ZM170.939 49.2517C171.344 48.6845 171.523 48.0219 171.523 47.3182H169.523C169.523 47.675 169.436 47.914 169.311 48.0892L170.939 49.2517ZM171.523 47.3182V45.8636H169.523V47.3182H171.523ZM170.144 44.9381C170.004 44.9954 169.851 45.051 169.684 45.1044L170.293 47.0092C170.505 46.9415 170.708 46.8682 170.901 46.7892L170.144 44.9381ZM169.672 45.1081C169.518 45.1596 169.346 45.2095 169.155 45.2571L169.64 47.1974C169.874 47.139 170.096 47.0752 170.305 47.0055L169.672 45.1081ZM169.147 45.2593C168.965 45.3065 168.766 45.3512 168.549 45.3932L168.929 47.3568C169.181 47.3079 169.422 47.2542 169.649 47.1953L169.147 45.2593ZM168.543 45.3944C168.332 45.4365 168.109 45.4755 167.873 45.5113L168.173 47.4887C168.437 47.4487 168.691 47.4044 168.935 47.3556L168.543 45.3944ZM167.868 45.512C167.307 45.5997 166.786 45.7529 166.34 46.0029L167.319 47.7471C167.494 47.6486 167.769 47.5518 168.177 47.488L167.868 45.512ZM166.348 45.9988C165.919 46.2344 165.55 46.5564 165.293 46.9817L167.003 48.0183C167.048 47.9436 167.134 47.8489 167.311 47.7512L166.348 45.9988ZM165.288 46.9895C165.045 47.3979 164.932 47.8494 164.932 48.3182H166.932C166.932 48.1809 166.962 48.0869 167.008 48.0105L165.288 46.9895ZM164.932 48.3182C164.932 49.0683 165.213 49.7558 165.84 50.2297L167.046 48.634C166.991 48.5927 166.932 48.5378 166.932 48.3182H164.932ZM165.84 50.2297C166.393 50.6473 167.056 50.8182 167.75 50.8182V48.8182C167.384 48.8182 167.175 48.7314 167.046 48.634L165.84 50.2297ZM196.713 36.0455L197.661 36.3639L198.104 35.0455H196.713V36.0455ZM190.849 53.5V54.5H191.568L191.797 53.8184L190.849 53.5ZM183.577 53.5L182.629 53.8184L182.858 54.5H183.577V53.5ZM177.713 36.0455V35.0455H176.322L176.765 36.3639L177.713 36.0455ZM184.304 36.0455L185.275 35.8083L185.089 35.0455H184.304V36.0455ZM187.122 47.5909L186.151 47.828L186.337 48.5909H187.122V47.5909ZM187.304 47.5909V48.5909H188.089L188.275 47.828L187.304 47.5909ZM190.122 36.0455V35.0455H189.337L189.151 35.8083L190.122 36.0455ZM195.765 35.727L189.901 53.1816L191.797 53.8184L197.661 36.3639L195.765 35.727ZM190.849 52.5H183.577V54.5H190.849V52.5ZM184.525 53.1816L178.661 35.727L176.765 36.3639L182.629 53.8184L184.525 53.1816ZM177.713 37.0455H184.304V35.0455H177.713V37.0455ZM183.333 36.2826L186.151 47.828L188.094 47.3538L185.275 35.8083L183.333 36.2826ZM187.122 48.5909H187.304V46.5909H187.122V48.5909ZM188.275 47.828L191.094 36.2826L189.151 35.8083L186.333 47.3538L188.275 47.828ZM190.122 37.0455H196.713V35.0455H190.122V37.0455ZM201.511 52.75L201.038 53.6311L201.044 53.6343L201.511 52.75ZM198.409 49.6591L197.527 50.1299L197.53 50.1359L198.409 49.6591ZM198.42 40.0909L199.301 40.5656L199.301 40.5656L198.42 40.0909ZM201.5 36.9432L201.992 37.8136L201.992 37.8136L201.5 36.9432ZM209.773 36.4318L210.13 35.498L210.13 35.498L209.773 36.4318ZM212.511 38.2159L211.794 38.9125L211.797 38.916L212.511 38.2159ZM214.261 41.0341L213.323 41.381L213.323 41.381L214.261 41.0341ZM214.875 46.2273V47.2273H215.875V46.2273H214.875ZM199.284 46.2273H198.284V47.2273H199.284V46.2273ZM199.284 42.7727V41.7727H198.284V42.7727H199.284ZM209.102 42.7727V43.7727H210.118L210.102 42.7576L209.102 42.7727ZM208.716 41.4545L207.869 41.986L207.875 41.9958L207.881 42.0054L208.716 41.4545ZM207.727 40.5568L207.254 41.4378L207.264 41.443L207.274 41.448L207.727 40.5568ZM204.932 40.5568L205.379 41.4512L205.385 41.4481L205.392 41.4448L204.932 40.5568ZM203.909 41.4432L203.082 40.8808L203.074 40.8923L203.909 41.4432ZM203.511 42.7727L202.512 42.7429L202.511 42.7578V42.7727H203.511ZM203.864 48L202.982 48.4714L202.982 48.4714L203.864 48ZM204.875 49.0341L204.38 49.9033L204.38 49.9033L204.875 49.0341ZM207.648 49.2273L207.331 48.2786L207.325 48.2806L207.648 49.2273ZM208.58 48.7045L209.241 49.4544L209.247 49.449L209.253 49.4435L208.58 48.7045ZM209.148 47.8636V46.8636H208.453L208.211 47.5149L209.148 47.8636ZM214.875 47.8636L215.862 48.024L216.051 46.8636H214.875V47.8636ZM213.477 51.0227L214.247 51.661L214.25 51.6577L213.477 51.0227ZM210.557 53.0909L210.93 54.0186L210.933 54.0174L210.557 53.0909ZM206.33 52.8182C204.593 52.8182 203.154 52.4868 201.978 51.8657L201.044 53.6343C202.565 54.4375 204.339 54.8182 206.33 54.8182V52.8182ZM201.984 51.8689C200.816 51.2417 199.923 50.3522 199.288 49.1823L197.53 50.1359C198.35 51.6478 199.525 52.8189 201.038 53.6311L201.984 51.8689ZM199.291 49.1882C198.665 48.0142 198.33 46.5699 198.33 44.8182H196.33C196.33 46.8241 196.714 48.607 197.527 50.1299L199.291 49.1882ZM198.33 44.8182C198.33 43.1515 198.665 41.7444 199.301 40.5656L197.54 39.6162C196.722 41.1344 196.33 42.8788 196.33 44.8182H198.33ZM199.301 40.5656C199.939 39.3819 200.832 38.4702 201.992 37.8136L201.008 36.0728C199.517 36.9161 198.356 38.103 197.54 39.6162L199.301 40.5656ZM201.992 37.8136C203.142 37.1629 204.531 36.8182 206.193 36.8182V34.8182C204.249 34.8182 202.509 35.2234 201.008 36.0728L201.992 37.8136ZM206.193 36.8182C207.407 36.8182 208.477 37.0064 209.415 37.3657L210.13 35.498C208.932 35.039 207.615 34.8182 206.193 34.8182V36.8182ZM209.415 37.3657C210.355 37.7255 211.143 38.2419 211.794 38.9125L213.229 37.5193C212.365 36.6293 211.327 35.9563 210.13 35.498L209.415 37.3657ZM211.797 38.916C212.448 39.5793 212.959 40.3951 213.323 41.381L215.199 40.6872C214.746 39.4609 214.09 38.398 213.225 37.5158L211.797 38.916ZM213.323 41.381C213.685 42.3584 213.875 43.4844 213.875 44.7727H215.875C215.875 43.2883 215.656 41.9219 215.199 40.6872L213.323 41.381ZM213.875 44.7727V46.2273H215.875V44.7727H213.875ZM214.875 45.2273H199.284V47.2273H214.875V45.2273ZM200.284 46.2273V42.7727H198.284V46.2273H200.284ZM199.284 43.7727H209.102V41.7727H199.284V43.7727ZM210.102 42.7576C210.092 42.087 209.916 41.4576 209.551 40.9037L207.881 42.0054C208.016 42.209 208.097 42.4584 208.102 42.7879L210.102 42.7576ZM209.563 40.9231C209.222 40.3794 208.755 39.9577 208.181 39.6657L207.274 41.448C207.533 41.5802 207.725 41.7569 207.869 41.986L209.563 40.9231ZM208.2 39.6758C207.628 39.3686 206.996 39.2273 206.33 39.2273V41.2273C206.708 41.2273 207.008 41.3056 207.254 41.4378L208.2 39.6758ZM206.33 39.2273C205.672 39.2273 205.047 39.371 204.472 39.6688L205.392 41.4448C205.665 41.3033 205.972 41.2273 206.33 41.2273V39.2273ZM204.485 39.6624C203.913 39.9481 203.439 40.3556 203.082 40.8809L204.736 42.0055C204.894 41.7732 205.102 41.5898 205.379 41.4512L204.485 39.6624ZM203.074 40.8923C202.71 41.444 202.532 42.0724 202.512 42.7429L204.511 42.8026C204.521 42.4579 204.608 42.1999 204.744 41.994L203.074 40.8923ZM202.511 42.7727V46.5H204.511V42.7727H202.511ZM202.511 46.5C202.511 47.2042 202.66 47.8696 202.982 48.4714L204.746 47.5286C204.598 47.2516 204.511 46.917 204.511 46.5H202.511ZM202.982 48.4714C203.307 49.0798 203.78 49.5613 204.38 49.9033L205.37 48.1649C205.092 48.0068 204.89 47.7989 204.746 47.5286L202.982 48.4714ZM204.38 49.9033C205.001 50.2566 205.711 50.4091 206.466 50.4091V48.4091C205.979 48.4091 205.627 48.3116 205.37 48.1649L204.38 49.9033ZM206.466 50.4091C206.991 50.4091 207.496 50.3353 207.97 50.1739L207.325 48.2806C207.087 48.3617 206.804 48.4091 206.466 48.4091V50.4091ZM207.964 50.176C208.44 50.0172 208.872 49.7802 209.241 49.4544L207.918 47.9547C207.772 48.0834 207.583 48.1949 207.332 48.2786L207.964 50.176ZM209.253 49.4435C209.628 49.1017 209.908 48.6878 210.085 48.2124L208.211 47.5149C208.145 47.691 208.046 47.8377 207.906 47.9656L209.253 49.4435ZM209.148 48.8636H214.875V46.8636H209.148V48.8636ZM213.888 47.7032C213.718 48.7521 213.321 49.6387 212.705 50.3877L214.25 51.6577C215.104 50.6189 215.639 49.3995 215.862 48.024L213.888 47.7032ZM212.707 50.3845C212.092 51.1273 211.261 51.7256 210.18 52.1644L210.933 54.0174C212.277 53.4714 213.393 52.6908 214.247 51.661L212.707 50.3845ZM210.183 52.1632C209.123 52.5903 207.845 52.8182 206.33 52.8182V54.8182C208.041 54.8182 209.582 54.5613 210.93 54.0186L210.183 52.1632ZM223.707 30.2273H224.707V29.2273H223.707V30.2273ZM223.707 53.5V54.5H224.707V53.5H223.707ZM217.435 53.5H216.435V54.5H217.435V53.5ZM217.435 30.2273V29.2273H216.435V30.2273H217.435ZM222.707 30.2273V53.5H224.707V30.2273H222.707ZM223.707 52.5H217.435V54.5H223.707V52.5ZM218.435 53.5V30.2273H216.435V53.5H218.435ZM217.435 31.2273H223.707V29.2273H217.435V31.2273ZM252.199 37.6591L251.243 37.954L251.461 38.6591H252.199V37.6591ZM251.415 36.0114L250.581 36.5631L250.586 36.5705L250.591 36.5779L251.415 36.0114ZM250.233 34.75L249.625 35.5436L249.631 35.5484L250.233 34.75ZM248.665 33.9659L248.371 34.9218L248.382 34.9251L248.665 33.9659ZM243.392 34.6364L243.933 35.4773L243.933 35.4773L243.392 34.6364ZM241.085 37.4091L240.177 36.9915L240.175 36.994L241.085 37.4091ZM241.085 46.3068L240.174 46.7198L240.174 46.7198L241.085 46.3068ZM243.392 49.0909L242.849 49.9308L242.854 49.9338L243.392 49.0909ZM249.892 49.3523L249.429 48.4657L249.426 48.4674L249.892 49.3523ZM251.903 47.4205L252.775 47.9115L252.776 47.9081L251.903 47.4205ZM252.608 44.4659L252.761 43.4777L251.608 43.2992V44.4659H252.608ZM253.562 44.6136V45.6136L253.715 43.6254L253.562 44.6136ZM247.244 44.6136H246.244V45.6136H247.244V44.6136ZM247.244 41.3182V40.3182H246.244V41.3182H247.244ZM256.688 41.3182H257.688V40.3182H256.688V41.3182ZM255.415 49.2841L256.279 49.788L256.279 49.788L255.415 49.2841ZM251.915 52.6477L252.38 53.5329L252.383 53.5311L251.915 52.6477ZM241.153 52.375L240.638 53.2322L240.643 53.235L241.153 52.375ZM237.369 48.25L236.476 48.7002L236.479 48.7048L237.369 48.25ZM236.812 36.8523L235.873 36.5101L235.871 36.5144L236.812 36.8523ZM239.062 33.0909L239.793 33.7734L239.796 33.7707L239.062 33.0909ZM242.449 30.7273L242.832 31.6508L242.837 31.6489L242.449 30.7273ZM250.278 30.4773L249.956 31.424L249.962 31.426L250.278 30.4773ZM253.244 32.0682L252.62 32.8497L252.624 32.8524L253.244 32.0682ZM255.392 34.5227L256.253 34.0133L256.253 34.0133L255.392 34.5227ZM256.494 37.6591V38.6591H257.658L257.483 37.5085L256.494 37.6591ZM253.154 37.3642C252.938 36.6627 252.634 36.0203 252.239 35.4448L250.591 36.5779C250.862 36.9721 251.081 37.4282 251.243 37.954L253.154 37.3642ZM252.249 35.4596C251.862 34.8743 251.39 34.3699 250.835 33.9516L249.631 35.5484C250 35.8271 250.316 36.1636 250.581 36.5631L252.249 35.4596ZM250.841 33.9564C250.282 33.5277 249.647 33.2131 248.948 33.0067L248.382 34.9251C248.864 35.0672 249.275 35.2753 249.625 35.5436L250.841 33.9564ZM248.959 33.0101C248.261 32.7955 247.517 32.6932 246.733 32.6932V34.6932C247.343 34.6932 247.886 34.7726 248.371 34.9217L248.959 33.0101ZM246.733 32.6932C245.306 32.6932 244.002 33.0549 242.851 33.7954L243.933 35.4773C244.737 34.9603 245.66 34.6932 246.733 34.6932V32.6932ZM242.851 33.7954C241.69 34.5426 240.804 35.626 240.177 36.9915L241.994 37.8267C242.487 36.7528 243.14 35.9877 243.933 35.4773L242.851 33.7954ZM240.175 36.994C239.548 38.37 239.256 39.9974 239.256 41.8409H241.256C241.256 40.1995 241.517 38.8724 241.995 37.8242L240.175 36.994ZM239.256 41.8409C239.256 43.6984 239.547 45.3365 240.174 46.7198L241.996 45.8939C241.517 44.8377 241.256 43.4985 241.256 41.8409H239.256ZM240.174 46.7198C240.795 48.0887 241.681 49.1762 242.849 49.9308L243.935 48.251C243.133 47.7329 242.481 46.9644 241.996 45.8939L240.174 46.7198ZM242.854 49.9338C244.018 50.6767 245.353 51.0341 246.824 51.0341V49.0341C245.689 49.0341 244.736 48.7627 243.93 48.248L242.854 49.9338ZM246.824 51.0341C248.134 51.0341 249.323 50.7817 250.358 50.2372L249.426 48.4674C248.734 48.832 247.877 49.0341 246.824 49.0341V51.0341ZM250.355 50.2389C251.392 49.6974 252.207 48.9182 252.775 47.9115L251.032 46.9294C250.66 47.5894 250.134 48.0981 249.429 48.4657L250.355 50.2389ZM252.776 47.9081C253.343 46.8943 253.608 45.7359 253.608 44.4659H251.608C251.608 45.4535 251.404 46.2647 251.03 46.9328L252.776 47.9081ZM252.455 45.4541L253.41 45.6019L253.715 43.6254L252.761 43.4777L252.455 45.4541ZM253.562 43.6136H247.244V45.6136H253.562V43.6136ZM248.244 44.6136V41.3182H246.244V44.6136H248.244ZM247.244 42.3182H256.688V40.3182H247.244V42.3182ZM255.688 41.3182V44.1136H257.688V41.3182H255.688ZM255.688 44.1136C255.688 45.9616 255.295 47.5045 254.551 48.7802L256.279 49.788C257.231 48.1546 257.688 46.2505 257.688 44.1136H255.688ZM254.551 48.7802C253.796 50.0743 252.766 51.0639 251.446 51.7644L252.383 53.5311C254.033 52.6558 255.336 51.403 256.279 49.788L254.551 48.7802ZM251.45 51.7625C250.128 52.457 248.587 52.8182 246.801 52.8182V54.8182C248.863 54.8182 250.732 54.3991 252.38 53.5329L251.45 51.7625ZM246.801 52.8182C244.812 52.8182 243.11 52.3735 241.664 51.515L240.643 53.235C242.439 54.3008 244.503 54.8182 246.801 54.8182V52.8182ZM241.668 51.5179C240.225 50.6506 239.089 49.4197 238.26 47.7952L236.479 48.7048C237.467 50.6409 238.854 52.16 240.638 53.2321L241.668 51.5179ZM238.262 47.7998C237.445 46.1796 237.017 44.2193 237.017 41.8864H235.017C235.017 44.4626 235.49 46.7447 236.476 48.7002L238.262 47.7998ZM237.017 41.8864C237.017 40.1007 237.269 38.54 237.754 37.1901L235.871 36.5144C235.295 38.1191 235.017 39.9145 235.017 41.8864H237.017ZM237.752 37.1944C238.249 35.8289 238.933 34.6947 239.793 33.7734L238.332 32.4084C237.268 33.5477 236.451 34.9211 235.873 36.5101L237.752 37.1944ZM239.796 33.7707C240.661 32.8373 241.671 32.1331 242.832 31.6508L242.065 29.8037C240.636 30.3972 239.388 31.2687 238.329 32.4111L239.796 33.7707ZM242.837 31.6489C244 31.1594 245.275 30.9091 246.676 30.9091V28.9091C245.031 28.9091 243.489 29.2043 242.061 29.8056L242.837 31.6489ZM246.676 30.9091C247.865 30.9091 248.956 31.0837 249.956 31.424L250.6 29.5305C249.374 29.1133 248.063 28.9091 246.676 28.9091V30.9091ZM249.962 31.426C250.971 31.7623 251.854 32.2382 252.62 32.8497L253.868 31.2866C252.907 30.5194 251.813 29.9347 250.595 29.5286L249.962 31.426ZM252.624 32.8524C253.4 33.4664 254.034 34.1917 254.532 35.0322L256.253 34.0133C255.629 32.9598 254.831 32.0487 253.865 31.284L252.624 32.8524ZM254.532 35.0322C255.024 35.8632 255.35 36.7858 255.506 37.8097L257.483 37.5085C257.29 36.2445 256.882 35.0762 256.253 34.0133L254.532 35.0322ZM256.494 36.6591H252.199V38.6591H256.494V36.6591ZM262.616 53.2614L262.201 54.171L262.21 54.1752L262.616 53.2614ZM260.526 51.4886L259.687 52.0339L259.691 52.0396L260.526 51.4886ZM260.31 46.1591L259.439 45.6674L259.439 45.6674L260.31 46.1591ZM261.798 44.6136L261.275 43.7616L261.275 43.7616L261.798 44.6136ZM263.923 43.7386L264.166 44.7088L264.172 44.7071L263.923 43.7386ZM266.389 43.2955L266.286 42.3008L266.283 42.3011L266.389 43.2955ZM268.878 43.0114L269.008 44.003L269.019 44.0013L268.878 43.0114ZM270.264 42.6023L270.798 43.4478L270.804 43.4442L270.264 42.6023ZM269.946 39.6705L270.625 38.9365L270.625 38.9365L269.946 39.6705ZM265.355 39.625L264.758 38.8225L264.753 38.8262L265.355 39.625ZM264.173 41.1818L264.033 42.1719L264.852 42.2882L265.12 41.5052L264.173 41.1818ZM260.332 40.6364L259.371 40.3616L259.056 41.4651L260.192 41.6264L260.332 40.6364ZM261.832 37.9773L262.547 38.6767L262.551 38.6729L261.832 37.9773ZM264.389 36.3636L264.722 37.3065L264.729 37.3043L264.389 36.3636ZM272.526 37.0909L271.975 37.9258L271.982 37.93L272.526 37.0909ZM274.185 38.9205L273.304 39.3951L273.308 39.4017L274.185 38.9205ZM274.821 53.5V54.5H275.821V53.5H274.821ZM270.866 53.5H269.866V54.5H270.866V53.5ZM270.866 51.1023H271.866V50.1023H270.866V51.1023ZM270.73 51.1023V50.1023H270.121L269.841 50.644L270.73 51.1023ZM269.673 52.4659L270.355 53.1974L270.356 53.197L269.673 52.4659ZM267.98 53.4773L268.328 54.4149L268.334 54.4127L267.98 53.4773ZM268.821 50.3409L269.294 51.2218L269.303 51.2171L268.821 50.3409ZM270.219 49.0227L269.365 48.5012L269.36 48.51L270.219 49.0227ZM270.719 45.1818H271.719V43.0628L270.083 44.4099L270.719 45.1818ZM270.06 45.4773L269.779 44.5175L269.772 44.5194L270.06 45.4773ZM269.037 45.7159L269.214 46.7001L269.214 46.7001L269.037 45.7159ZM266.946 46.0341L267.081 47.025L267.084 47.0246L266.946 46.0341ZM265.298 46.4432L264.934 45.5117L264.934 45.5117L265.298 46.4432ZM264.151 47.2386L264.916 47.8823L264.923 47.8737L264.151 47.2386ZM264.56 50.25L263.987 51.0698L263.987 51.0698L264.56 50.25ZM265.605 52.8523C264.619 52.8523 263.764 52.6772 263.023 52.3476L262.21 54.1752C263.241 54.6334 264.379 54.8523 265.605 54.8523V52.8523ZM263.032 52.3518C262.318 52.0255 261.768 51.5561 261.36 50.9377L259.691 52.0396C260.313 52.9817 261.158 53.6942 262.201 54.1709L263.032 52.3518ZM261.364 50.9434C260.984 50.359 260.764 49.5972 260.764 48.6023H258.764C258.764 49.8953 259.052 51.0577 259.687 52.0339L261.364 50.9434ZM260.764 48.6023C260.764 47.7345 260.925 47.103 261.18 46.6508L259.439 45.6674C258.967 46.503 258.764 47.5003 258.764 48.6023H260.764ZM261.18 46.6508C261.461 46.1541 261.838 45.7631 262.322 45.4656L261.275 43.7616C260.501 44.2369 259.886 44.8762 259.439 45.6674L261.18 46.6508ZM262.322 45.4656C262.855 45.1379 263.467 44.8834 264.166 44.7088L263.681 42.7685C262.804 42.9878 261.999 43.3167 261.275 43.7616L262.322 45.4656ZM264.172 44.7071C264.919 44.5151 265.693 44.3757 266.496 44.2898L266.283 42.3011C265.388 42.397 264.518 42.5531 263.674 42.7701L264.172 44.7071ZM266.492 44.2901C267.519 44.1836 268.359 44.0879 269.008 44.0029L268.748 42.0198C268.124 42.1015 267.304 42.1952 266.286 42.3008L266.492 44.2901ZM269.019 44.0013C269.693 43.9051 270.327 43.7453 270.798 43.4478L269.73 41.7568C269.626 41.8229 269.335 41.9358 268.736 42.0214L269.019 44.0013ZM270.804 43.4442C271.425 43.0458 271.707 42.4126 271.707 41.7273H269.707C269.707 41.7635 269.704 41.7843 269.702 41.7929C269.7 41.8009 269.7 41.7985 269.704 41.7896C269.709 41.7804 269.716 41.771 269.723 41.7635C269.729 41.7563 269.732 41.7559 269.725 41.7604L270.804 43.4442ZM271.707 41.7273V41.6591H269.707V41.7273H271.707ZM271.707 41.6591C271.707 40.5955 271.384 39.6389 270.625 38.9365L269.267 40.4044C269.523 40.6414 269.707 41.0106 269.707 41.6591H271.707ZM270.625 38.9365C269.872 38.2399 268.863 37.9659 267.753 37.9659V39.9659C268.552 39.9659 269.004 40.1616 269.267 40.4044L270.625 38.9365ZM267.753 37.9659C266.608 37.9659 265.575 38.2151 264.758 38.8225L265.952 40.4275C266.317 40.1561 266.882 39.9659 267.753 39.9659V37.9659ZM264.753 38.8262C264.036 39.3669 263.506 40.0425 263.227 40.8584L265.12 41.5052C265.25 41.1241 265.508 40.7619 265.957 40.4238L264.753 38.8262ZM264.314 40.1918L260.473 39.6463L260.192 41.6264L264.033 42.1719L264.314 40.1918ZM261.294 40.9111C261.556 39.9929 261.978 39.2577 262.547 38.6767L261.118 37.2778C260.292 38.1211 259.715 39.1586 259.371 40.3616L261.294 40.9111ZM262.551 38.6729C263.133 38.0716 263.851 37.6146 264.722 37.3065L264.056 35.4208C262.913 35.8248 261.926 36.4435 261.114 37.2816L262.551 38.6729ZM264.729 37.3043C265.613 36.9849 266.61 36.8182 267.73 36.8182V34.8182C266.411 34.8182 265.18 35.0151 264.05 35.423L264.729 37.3043ZM267.73 36.8182C268.492 36.8182 269.252 36.9073 270.011 37.0868L270.472 35.1405C269.564 34.926 268.65 34.8182 267.73 34.8182V36.8182ZM270.011 37.0868C270.735 37.2578 271.387 37.5381 271.975 37.9258L273.076 36.256C272.285 35.7346 271.415 35.3634 270.472 35.1405L270.011 37.0868ZM271.982 37.93C272.52 38.2794 272.962 38.7597 273.304 39.3951L275.065 38.4458C274.574 37.5358 273.909 36.7964 273.07 36.2518L271.982 37.93ZM273.308 39.4017C273.63 39.9878 273.821 40.7761 273.821 41.8182H275.821C275.821 40.5421 275.588 39.3986 275.061 38.4392L273.308 39.4017ZM273.821 41.8182V53.5H275.821V41.8182H273.821ZM274.821 52.5H270.866V54.5H274.821V52.5ZM271.866 53.5V51.1023H269.866V53.5H271.866ZM270.866 50.1023H270.73V52.1023H270.866V50.1023ZM269.841 50.644C269.651 51.0135 269.373 51.3782 268.991 51.7349L270.356 53.197C270.883 52.7051 271.309 52.1607 271.619 51.5606L269.841 50.644ZM268.991 51.7344C268.656 52.047 268.21 52.3215 267.627 52.5418L268.334 54.4127C269.114 54.1179 269.797 53.7181 270.355 53.1974L268.991 51.7344ZM267.632 52.5397C267.095 52.7391 266.426 52.8523 265.605 52.8523V54.8523C266.603 54.8523 267.517 54.7154 268.328 54.4149L267.632 52.5397ZM266.673 51.8295C267.631 51.8295 268.516 51.6399 269.294 51.2217L268.348 49.4601C267.914 49.6934 267.367 49.8295 266.673 49.8295V51.8295ZM269.303 51.2171C270.05 50.806 270.653 50.2467 271.077 49.5355L269.36 48.51C269.133 48.8896 268.804 49.2091 268.339 49.4647L269.303 51.2171ZM271.072 49.5442C271.502 48.8405 271.719 48.0652 271.719 47.2386H269.719C269.719 47.7 269.602 48.114 269.365 48.5013L271.072 49.5442ZM271.719 47.2386V45.1818H269.719V47.2386H271.719ZM270.083 44.4099C270.111 44.3872 270.109 44.3954 270.048 44.4227C269.991 44.4482 269.904 44.4808 269.779 44.5175L270.341 46.437C270.682 46.3371 271.064 46.1933 271.354 45.9537L270.083 44.4099ZM269.772 44.5194C269.512 44.5975 269.209 44.6689 268.86 44.7317L269.214 46.7001C269.622 46.6266 270.001 46.5389 270.347 46.4351L269.772 44.5194ZM268.86 44.7317C268.493 44.7978 268.129 44.8565 267.771 44.9078L268.053 46.8877C268.437 46.8329 268.824 46.7704 269.214 46.7001L268.86 44.7317ZM267.771 44.9078C267.4 44.9607 267.08 45.0059 266.808 45.0436L267.084 47.0246C267.358 46.9865 267.681 46.9408 268.053 46.8877L267.771 44.9078ZM266.811 45.0432C266.134 45.1352 265.505 45.2887 264.934 45.5117L265.662 47.3746C266.061 47.2189 266.531 47.0996 267.081 47.025L266.811 45.0432ZM264.934 45.5117C264.319 45.7521 263.785 46.1086 263.378 46.6035L264.923 47.8737C265.077 47.6868 265.308 47.513 265.662 47.3746L264.934 45.5117ZM263.385 46.595C262.922 47.1455 262.73 47.8216 262.73 48.5341H264.73C264.73 48.186 264.818 47.9984 264.916 47.8822L263.385 46.595ZM262.73 48.5341C262.73 49.5716 263.13 50.4711 263.987 51.0698L265.132 49.4302C264.883 49.2562 264.73 49.0117 264.73 48.5341H262.73ZM263.987 51.0698C264.748 51.6015 265.668 51.8295 266.673 51.8295V49.8295C265.967 49.8295 265.477 49.6712 265.132 49.4302L263.987 51.0698ZM283.071 30.2273H284.071V29.2273H283.071V30.2273ZM283.071 53.5V54.5H284.071V53.5H283.071ZM278.957 53.5H277.957V54.5H278.957V53.5ZM278.957 30.2273V29.2273H277.957V30.2273H278.957ZM282.071 30.2273V53.5H284.071V30.2273H282.071ZM283.071 52.5H278.957V54.5H283.071V52.5ZM279.957 53.5V30.2273H277.957V53.5H279.957ZM278.957 31.2273H283.071V29.2273H278.957V31.2273ZM289.335 53.2614L288.92 54.171L288.929 54.1752L289.335 53.2614ZM287.244 51.4886L286.406 52.0339L286.41 52.0396L287.244 51.4886ZM287.028 46.1591L286.158 45.6674L286.158 45.6674L287.028 46.1591ZM288.517 44.6136L287.994 43.7616L287.994 43.7616L288.517 44.6136ZM290.642 43.7386L290.885 44.7088L290.891 44.7071L290.642 43.7386ZM293.108 43.2955L293.005 42.3008L293.001 42.3011L293.108 43.2955ZM295.597 43.0114L295.726 44.003L295.738 44.0013L295.597 43.0114ZM296.983 42.6023L297.517 43.4478L297.523 43.4442L296.983 42.6023ZM296.665 39.6705L297.344 38.9365L297.344 38.9365L296.665 39.6705ZM292.074 39.625L291.477 38.8225L291.472 38.8262L292.074 39.625ZM290.892 41.1818L290.751 42.1719L291.571 42.2882L291.838 41.5052L290.892 41.1818ZM287.051 40.6364L286.09 40.3616L285.774 41.4651L286.911 41.6264L287.051 40.6364ZM288.551 37.9773L289.266 38.6767L289.269 38.6729L288.551 37.9773ZM291.108 36.3636L291.441 37.3065L291.447 37.3043L291.108 36.3636ZM299.244 37.0909L298.694 37.9258L298.7 37.93L299.244 37.0909ZM300.903 38.9205L300.023 39.3951L300.027 39.4017L300.903 38.9205ZM301.54 53.5V54.5H302.54V53.5H301.54ZM297.585 53.5H296.585V54.5H297.585V53.5ZM297.585 51.1023H298.585V50.1023H297.585V51.1023ZM297.449 51.1023V50.1023H296.839L296.56 50.644L297.449 51.1023ZM296.392 52.4659L297.074 53.1974L297.074 53.197L296.392 52.4659ZM294.699 53.4773L295.047 54.4149L295.052 54.4127L294.699 53.4773ZM295.54 50.3409L296.013 51.2218L296.022 51.2171L295.54 50.3409ZM296.938 49.0227L296.084 48.5012L296.079 48.51L296.938 49.0227ZM297.438 45.1818H298.438V43.0628L296.802 44.4099L297.438 45.1818ZM296.778 45.4773L296.498 44.5175L296.491 44.5194L296.778 45.4773ZM295.756 45.7159L295.933 46.7001L295.933 46.7001L295.756 45.7159ZM293.665 46.0341L293.799 47.025L293.802 47.0246L293.665 46.0341ZM292.017 46.4432L291.653 45.5117L291.653 45.5117L292.017 46.4432ZM290.869 47.2386L291.635 47.8823L291.642 47.8737L290.869 47.2386ZM291.278 50.25L290.706 51.0698L290.706 51.0698L291.278 50.25ZM292.324 52.8523C291.338 52.8523 290.483 52.6772 289.741 52.3476L288.929 54.1752C289.96 54.6334 291.097 54.8523 292.324 54.8523V52.8523ZM289.751 52.3518C289.037 52.0255 288.487 51.5561 288.079 50.9377L286.41 52.0396C287.032 52.9817 287.876 53.6942 288.92 54.1709L289.751 52.3518ZM288.083 50.9434C287.702 50.359 287.483 49.5972 287.483 48.6023H285.483C285.483 49.8953 285.771 51.0577 286.406 52.0339L288.083 50.9434ZM287.483 48.6023C287.483 47.7345 287.644 47.103 287.899 46.6508L286.158 45.6674C285.686 46.503 285.483 47.5003 285.483 48.6023H287.483ZM287.899 46.6508C288.18 46.1541 288.556 45.7631 289.041 45.4656L287.994 43.7616C287.22 44.2369 286.604 44.8762 286.158 45.6674L287.899 46.6508ZM289.041 45.4656C289.574 45.1379 290.186 44.8834 290.885 44.7088L290.4 42.7685C289.522 42.9878 288.718 43.3167 287.994 43.7616L289.041 45.4656ZM290.891 44.7071C291.638 44.5151 292.412 44.3757 293.214 44.2898L293.001 42.3011C292.107 42.397 291.237 42.5531 290.393 42.7701L290.891 44.7071ZM293.211 44.2901C294.238 44.1836 295.078 44.0879 295.726 44.0029L295.467 42.0198C294.843 42.1015 294.023 42.1952 293.005 42.3008L293.211 44.2901ZM295.738 44.0013C296.412 43.9051 297.046 43.7453 297.517 43.4478L296.449 41.7568C296.344 41.8229 296.054 41.9358 295.455 42.0214L295.738 44.0013ZM297.523 43.4442C298.144 43.0458 298.426 42.4126 298.426 41.7273H296.426C296.426 41.7635 296.423 41.7843 296.421 41.7929C296.419 41.8009 296.419 41.7985 296.423 41.7896C296.428 41.7804 296.434 41.771 296.441 41.7635C296.448 41.7563 296.45 41.7559 296.443 41.7604L297.523 43.4442ZM298.426 41.7273V41.6591H296.426V41.7273H298.426ZM298.426 41.6591C298.426 40.5955 298.103 39.6389 297.344 38.9365L295.986 40.4044C296.242 40.6414 296.426 41.0106 296.426 41.6591H298.426ZM297.344 38.9365C296.591 38.2399 295.581 37.9659 294.472 37.9659V39.9659C295.271 39.9659 295.723 40.1616 295.986 40.4044L297.344 38.9365ZM294.472 37.9659C293.327 37.9659 292.294 38.2151 291.477 38.8225L292.671 40.4275C293.036 40.1561 293.601 39.9659 294.472 39.9659V37.9659ZM291.472 38.8262C290.754 39.3669 290.225 40.0425 289.946 40.8584L291.838 41.5052C291.969 41.1241 292.227 40.7619 292.676 40.4238L291.472 38.8262ZM291.033 40.1918L287.192 39.6463L286.911 41.6264L290.751 42.1719L291.033 40.1918ZM288.013 40.9111C288.275 39.9929 288.697 39.2577 289.266 38.6767L287.836 37.2778C287.011 38.1211 286.433 39.1586 286.09 40.3616L288.013 40.9111ZM289.269 38.6729C289.852 38.0716 290.569 37.6146 291.441 37.3065L290.775 35.4208C289.631 35.8248 288.644 36.4435 287.833 37.2816L289.269 38.6729ZM291.447 37.3043C292.332 36.9849 293.329 36.8182 294.449 36.8182V34.8182C293.129 34.8182 291.899 35.0151 290.768 35.423L291.447 37.3043ZM294.449 36.8182C295.211 36.8182 295.971 36.9073 296.73 37.0868L297.19 35.1405C296.283 34.926 295.369 34.8182 294.449 34.8182V36.8182ZM296.73 37.0868C297.454 37.2578 298.106 37.5381 298.694 37.9258L299.795 36.256C299.004 35.7346 298.133 35.3634 297.19 35.1405L296.73 37.0868ZM298.7 37.93C299.239 38.2794 299.681 38.7597 300.023 39.3951L301.784 38.4458C301.293 37.5358 300.628 36.7964 299.788 36.2518L298.7 37.93ZM300.027 39.4017C300.349 39.9878 300.54 40.7761 300.54 41.8182H302.54C302.54 40.5421 302.307 39.3986 301.78 38.4392L300.027 39.4017ZM300.54 41.8182V53.5H302.54V41.8182H300.54ZM301.54 52.5H297.585V54.5H301.54V52.5ZM298.585 53.5V51.1023H296.585V53.5H298.585ZM297.585 50.1023H297.449V52.1023H297.585V50.1023ZM296.56 50.644C296.37 51.0135 296.092 51.3782 295.71 51.7349L297.074 53.197C297.601 52.7051 298.028 52.1607 298.338 51.5606L296.56 50.644ZM295.71 51.7344C295.375 52.047 294.929 52.3215 294.345 52.5418L295.052 54.4127C295.833 54.1179 296.515 53.7181 297.074 53.1974L295.71 51.7344ZM294.351 52.5397C293.813 52.7391 293.144 52.8523 292.324 52.8523V54.8523C293.322 54.8523 294.236 54.7154 295.047 54.4149L294.351 52.5397ZM293.392 51.8295C294.35 51.8295 295.235 51.6399 296.013 51.2217L295.066 49.4601C294.632 49.6934 294.085 49.8295 293.392 49.8295V51.8295ZM296.022 51.2171C296.769 50.806 297.371 50.2467 297.796 49.5355L296.079 48.51C295.852 48.8896 295.523 49.2091 295.058 49.4647L296.022 51.2171ZM297.791 49.5442C298.221 48.8405 298.438 48.0652 298.438 47.2386H296.438C296.438 47.7 296.321 48.114 296.084 48.5013L297.791 49.5442ZM298.438 47.2386V45.1818H296.438V47.2386H298.438ZM296.802 44.4099C296.829 44.3872 296.828 44.3954 296.767 44.4227C296.71 44.4482 296.623 44.4808 296.498 44.5175L297.059 46.437C297.401 46.3371 297.782 46.1933 298.073 45.9537L296.802 44.4099ZM296.491 44.5194C296.231 44.5975 295.928 44.6689 295.579 44.7317L295.933 46.7001C296.341 46.6266 296.72 46.5389 297.066 46.4351L296.491 44.5194ZM295.579 44.7317C295.211 44.7978 294.848 44.8565 294.489 44.9078L294.772 46.8877C295.156 46.8329 295.542 46.7704 295.933 46.7001L295.579 44.7317ZM294.489 44.9078C294.119 44.9607 293.798 45.0059 293.527 45.0436L293.802 47.0246C294.077 46.9865 294.4 46.9408 294.772 46.8877L294.489 44.9078ZM293.53 45.0432C292.852 45.1352 292.224 45.2887 291.653 45.5117L292.381 47.3746C292.78 47.2189 293.25 47.0996 293.799 47.025L293.53 45.0432ZM291.653 45.5117C291.038 45.7521 290.504 46.1086 290.097 46.6035L291.642 47.8737C291.795 47.6868 292.027 47.513 292.381 47.3746L291.653 45.5117ZM290.104 46.595C289.641 47.1455 289.449 47.8216 289.449 48.5341H291.449C291.449 48.186 291.537 47.9984 291.635 47.8822L290.104 46.595ZM289.449 48.5341C289.449 49.5716 289.849 50.4711 290.706 51.0698L291.851 49.4302C291.602 49.2562 291.449 49.0117 291.449 48.5341H289.449ZM290.706 51.0698C291.467 51.6015 292.386 51.8295 293.392 51.8295V49.8295C292.686 49.8295 292.196 49.6712 291.851 49.4302L290.706 51.0698ZM309.04 36.0455L309.917 35.5657L309.633 35.0455H309.04V36.0455ZM312.562 42.4886L311.685 42.9684L312.555 44.5604L313.437 42.9743L312.562 42.4886ZM316.142 36.0455V35.0455H315.554L315.268 35.5598L316.142 36.0455ZM320.494 36.0455L321.351 36.5618L322.265 35.0455H320.494V36.0455ZM315.233 44.7727L314.377 44.2564L314.063 44.7772L314.38 45.2955L315.233 44.7727ZM320.585 53.5V54.5H322.372L321.438 52.9772L320.585 53.5ZM316.256 53.5L315.394 54.0067L315.683 54.5H316.256V53.5ZM312.562 47.2159L313.425 46.7092L312.558 45.2355L311.698 46.7127L312.562 47.2159ZM308.903 53.5V54.5H309.478L309.768 54.0032L308.903 53.5ZM304.54 53.5L303.686 52.9796L302.759 54.5H304.54V53.5ZM309.858 44.7727L310.712 45.2931L311.025 44.7794L310.718 44.2622L309.858 44.7727ZM304.676 36.0455V35.0455H302.919L303.816 36.556L304.676 36.0455ZM308.162 36.5252L311.685 42.9684L313.44 42.0089L309.917 35.5657L308.162 36.5252ZM313.437 42.9743L317.016 36.5311L315.268 35.5598L311.688 42.003L313.437 42.9743ZM316.142 37.0455H320.494V35.0455H316.142V37.0455ZM319.638 35.5292L314.377 44.2564L316.089 45.289L321.351 36.5618L319.638 35.5292ZM314.38 45.2955L319.733 54.0228L321.438 52.9772L316.085 44.2499L314.38 45.2955ZM320.585 52.5H316.256V54.5H320.585V52.5ZM317.118 52.9933L313.425 46.7092L311.7 47.7226L315.394 54.0067L317.118 52.9933ZM311.698 46.7127L308.039 52.9968L309.768 54.0032L313.427 47.7191L311.698 46.7127ZM308.903 52.5H304.54V54.5H308.903V52.5ZM305.394 54.0204L310.712 45.2931L309.004 44.2524L303.686 52.9796L305.394 54.0204ZM310.718 44.2622L305.536 35.5349L303.816 36.556L308.998 45.2833L310.718 44.2622ZM304.676 37.0455H309.04V35.0455H304.676V37.0455ZM324.676 59.9091L324.863 58.9267L324.851 58.9245L324.676 59.9091ZM323.551 59.6136L322.593 59.3282L322.333 60.199L323.175 60.5404L323.551 59.6136ZM324.506 56.4091L324.785 55.449L323.831 55.1711L323.547 56.1236L324.506 56.4091ZM326.108 56.6591L326.092 55.6592L326.108 56.6591ZM327.347 56.2159L326.736 55.4239L326.727 55.431L326.718 55.4383L327.347 56.2159ZM328.267 54.8068L329.202 55.1615L329.204 55.1567L328.267 54.8068ZM328.619 53.8636L329.556 54.2135L329.684 53.8722L329.562 53.5289L328.619 53.8636ZM322.29 36.0455V35.0455H320.873L321.347 36.3802L322.29 36.0455ZM326.653 36.0455L327.61 35.7536L327.394 35.0455H326.653V36.0455ZM330.676 49.2273L329.72 49.5192L329.936 50.2273H330.676V49.2273ZM330.858 49.2273V50.2273H331.598L331.814 49.5199L330.858 49.2273ZM334.892 36.0455V35.0455H334.152L333.936 35.7528L334.892 36.0455ZM339.267 36.0455L340.209 36.3818L340.686 35.0455H339.267V36.0455ZM332.278 55.6136L331.337 55.2773L331.335 55.2812L332.278 55.6136ZM330.983 57.9886L330.208 57.3564L330.205 57.3607L330.983 57.9886ZM329.006 59.5114L328.598 58.5982L328.587 58.6031L329.006 59.5114ZM326.233 59.0455C325.726 59.0455 325.27 59.0043 324.863 58.9268L324.489 60.8914C325.037 60.9957 325.619 61.0455 326.233 61.0455V59.0455ZM324.851 58.9245C324.415 58.8472 324.116 58.7637 323.927 58.6869L323.175 60.5404C323.547 60.6908 323.997 60.8043 324.501 60.8937L324.851 58.9245ZM324.51 59.8991L325.464 56.6946L323.547 56.1236L322.593 59.3282L324.51 59.8991ZM324.226 57.3692C324.891 57.5629 325.528 57.6686 326.124 57.659L326.092 55.6592C325.749 55.6648 325.317 55.6038 324.785 55.449L324.226 57.3692ZM326.124 57.659C326.811 57.6479 327.441 57.4257 327.975 56.9935L326.718 55.4383C326.54 55.5819 326.345 55.6551 326.092 55.6592L326.124 57.659ZM327.957 57.0079C328.526 56.5695 328.919 55.9081 329.202 55.1615L327.332 54.4522C327.115 55.0237 326.895 55.3017 326.736 55.4239L327.957 57.0079ZM329.204 55.1567L329.556 54.2135L327.683 53.5137L327.33 54.4569L329.204 55.1567ZM329.562 53.5289L323.232 35.7107L321.347 36.3802L327.677 54.1984L329.562 53.5289ZM322.29 37.0455H326.653V35.0455H322.29V37.0455ZM325.697 36.3373L329.72 49.5192L331.633 48.9354L327.61 35.7536L325.697 36.3373ZM330.676 50.2273H330.858V48.2273H330.676V50.2273ZM331.814 49.5199L335.848 36.3381L333.936 35.7528L329.902 48.9346L331.814 49.5199ZM334.892 37.0455H339.267V35.0455H334.892V37.0455ZM338.325 35.7091L331.337 55.2773L333.22 55.95L340.209 36.3818L338.325 35.7091ZM331.335 55.2812C331.042 56.1128 330.663 56.7992 330.208 57.3564L331.758 58.6209C332.379 57.8599 332.863 56.9629 333.222 55.9461L331.335 55.2812ZM330.205 57.3607C329.766 57.9047 329.234 58.3144 328.598 58.5983L329.413 60.4244C330.338 60.0114 331.124 59.4059 331.761 58.6166L330.205 57.3607ZM328.587 58.6031C327.976 58.885 327.201 59.0455 326.233 59.0455V61.0455C327.416 61.0455 328.49 60.8499 329.424 60.4196L328.587 58.6031Z" fill="white"/>
<circle cx="44.5784" cy="42.5" r="30.1395" stroke="#9EB2B7" stroke-dasharray="2 2"/>
<circle cx="44.5784" cy="42.5" r="39.9006" stroke="#9EB2B7" stroke-dasharray="2 2"/>
<circle cx="44.5784" cy="42.5" r="23.8869" fill="#FF7400"/>
<path fill-rule="evenodd" clip-rule="evenodd" d="M66.064 32.0497C61.8902 28.4814 56.4718 26.3266 50.5501 26.3266C37.3577 26.3266 26.6632 37.0211 26.6632 50.2135C26.6632 53.9611 27.5263 57.5072 29.0645 60.6637C23.9399 56.2826 20.6915 49.7706 20.6915 42.5C20.6915 29.3077 31.386 18.6131 44.5784 18.6131C54.0231 18.6131 62.1875 24.0946 66.064 32.0497Z" fill="#D15F00"/>
<circle cx="73.7625" cy="15.1414" r="6.04845" transform="rotate(-30 73.7625 15.1414)" fill="#87D2F3"/>
<path fill-rule="evenodd" clip-rule="evenodd" d="M77.1509 10.1296C75.7839 9.87552 74.3229 10.089 73.0243 10.8387C70.1314 12.509 69.1402 16.2081 70.8105 19.1011C71.2849 19.9229 71.9231 20.5912 72.6601 21.0887C70.9816 20.7768 69.4449 19.76 68.5243 18.1656C66.8541 15.2727 67.8453 11.5735 70.7382 9.9033C72.8094 8.70754 75.2937 8.87589 77.1509 10.1296Z" fill="#2E9CCD"/>
<circle cx="7.40781" cy="55.4373" r="6.04845" transform="rotate(-15 7.40781 55.4373)" fill="#8A83E0"/>
<path fill-rule="evenodd" clip-rule="evenodd" d="M11.978 51.4732C10.7233 50.874 9.25681 50.702 7.80846 51.0901C4.58182 51.9547 2.66698 55.2713 3.53156 58.4979C3.77717 59.4146 4.22065 60.2253 4.80374 60.8966C3.26322 60.1608 2.04195 58.781 1.56545 57.0027C0.700877 53.7761 2.61571 50.4595 5.84236 49.5949C8.15239 48.9759 10.5085 49.7815 11.978 51.4732Z" fill="#1D1391"/>
</svg>
