<svg width="340" height="85" viewBox="0 0 340 85" fill="none" xmlns="http://www.w3.org/2000/svg">
<path d="M110.086 54.5V30.5H115.16V50.3164H125.449V54.5H110.086ZM133.849 54.8398C132.7 54.8398 131.677 54.6406 130.778 54.2422C129.88 53.8359 129.169 53.2383 128.646 52.4492C128.13 51.6523 127.872 50.6602 127.872 49.4727C127.872 48.4727 128.056 47.6328 128.423 46.9531C128.79 46.2734 129.29 45.7266 129.923 45.3125C130.556 44.8984 131.274 44.5859 132.079 44.375C132.892 44.1641 133.743 44.0156 134.634 43.9297C135.681 43.8203 136.524 43.7187 137.165 43.625C137.806 43.5234 138.271 43.375 138.56 43.1797C138.849 42.9844 138.993 42.6953 138.993 42.3125V42.2422C138.993 41.5 138.759 40.9258 138.29 40.5195C137.829 40.1133 137.173 39.9102 136.321 39.9102C135.423 39.9102 134.708 40.1094 134.177 40.5078C133.646 40.8984 133.294 41.3906 133.122 41.9844L128.505 41.6094C128.739 40.5156 129.2 39.5703 129.888 38.7734C130.575 37.9687 131.462 37.3516 132.548 36.9219C133.642 36.4844 134.907 36.2656 136.345 36.2656C137.345 36.2656 138.302 36.3828 139.216 36.6172C140.138 36.8516 140.954 37.2148 141.665 37.707C142.384 38.1992 142.95 38.832 143.364 39.6055C143.778 40.3711 143.985 41.2891 143.985 42.3594V54.5H139.251V52.0039H139.11C138.821 52.5664 138.435 53.0625 137.95 53.4922C137.466 53.9141 136.884 54.2461 136.204 54.4883C135.524 54.7227 134.739 54.8398 133.849 54.8398ZM135.278 51.3945C136.013 51.3945 136.661 51.25 137.224 50.9609C137.786 50.6641 138.228 50.2656 138.548 49.7656C138.868 49.2656 139.028 48.6992 139.028 48.0664V46.1563C138.872 46.2578 138.657 46.3516 138.384 46.4375C138.118 46.5156 137.817 46.5898 137.481 46.6602C137.146 46.7227 136.81 46.7812 136.474 46.8359C136.138 46.8828 135.833 46.9258 135.56 46.9648C134.974 47.0508 134.462 47.1875 134.024 47.375C133.587 47.5625 133.247 47.8164 133.005 48.1367C132.763 48.4492 132.642 48.8398 132.642 49.3086C132.642 49.9883 132.888 50.5078 133.38 50.8672C133.88 51.2187 134.513 51.3945 135.278 51.3945ZM147.858 54.5V36.5H152.698V39.6406H152.886C153.214 38.5234 153.765 37.6797 154.538 37.1094C155.312 36.5312 156.202 36.2422 157.21 36.2422C157.46 36.2422 157.729 36.2578 158.019 36.2891C158.308 36.3203 158.562 36.3633 158.78 36.418V40.8477C158.546 40.7773 158.222 40.7148 157.808 40.6602C157.394 40.6055 157.015 40.5781 156.671 40.5781C155.937 40.5781 155.28 40.7383 154.702 41.0586C154.132 41.3711 153.679 41.8086 153.343 42.3711C153.015 42.9336 152.851 43.582 152.851 44.3164V54.5H147.858ZM165.979 54.8398C164.83 54.8398 163.807 54.6406 162.908 54.2422C162.01 53.8359 161.299 53.2383 160.775 52.4492C160.26 51.6523 160.002 50.6602 160.002 49.4727C160.002 48.4727 160.186 47.6328 160.553 46.9531C160.92 46.2734 161.42 45.7266 162.053 45.3125C162.686 44.8984 163.404 44.5859 164.209 44.375C165.021 44.1641 165.873 44.0156 166.764 43.9297C167.811 43.8203 168.654 43.7187 169.295 43.625C169.936 43.5234 170.4 43.375 170.689 43.1797C170.979 42.9844 171.123 42.6953 171.123 42.3125V42.2422C171.123 41.5 170.889 40.9258 170.42 40.5195C169.959 40.1133 169.303 39.9102 168.451 39.9102C167.553 39.9102 166.838 40.1094 166.307 40.5078C165.775 40.8984 165.424 41.3906 165.252 41.9844L160.635 41.6094C160.869 40.5156 161.33 39.5703 162.018 38.7734C162.705 37.9687 163.592 37.3516 164.678 36.9219C165.771 36.4844 167.037 36.2656 168.475 36.2656C169.475 36.2656 170.432 36.3828 171.346 36.6172C172.268 36.8516 173.084 37.2148 173.795 37.707C174.514 38.1992 175.08 38.832 175.494 39.6055C175.908 40.3711 176.115 41.2891 176.115 42.3594V54.5H171.381V52.0039H171.24C170.951 52.5664 170.564 53.0625 170.08 53.4922C169.596 53.9141 169.014 54.2461 168.334 54.4883C167.654 54.7227 166.869 54.8398 165.979 54.8398ZM167.408 51.3945C168.143 51.3945 168.791 51.25 169.354 50.9609C169.916 50.6641 170.357 50.2656 170.678 49.7656C170.998 49.2656 171.158 48.6992 171.158 48.0664V46.1563C171.002 46.2578 170.787 46.3516 170.514 46.4375C170.248 46.5156 169.947 46.5898 169.611 46.6602C169.275 46.7227 168.939 46.7812 168.604 46.8359C168.268 46.8828 167.963 46.9258 167.689 46.9648C167.104 47.0508 166.592 47.1875 166.154 47.375C165.717 47.5625 165.377 47.8164 165.135 48.1367C164.893 48.4492 164.771 48.8398 164.771 49.3086C164.771 49.9883 165.018 50.5078 165.51 50.8672C166.01 51.2187 166.643 51.3945 167.408 51.3945ZM196.125 36.5L189.832 54.5H184.207L177.914 36.5H183.188L186.926 49.3789H187.113L190.84 36.5H196.125ZM206.303 54.8516C204.451 54.8516 202.857 54.4766 201.521 53.7266C200.193 52.9687 199.17 51.8984 198.451 50.5156C197.732 49.125 197.373 47.4805 197.373 45.582C197.373 43.7305 197.732 42.1055 198.451 40.707C199.17 39.3086 200.182 38.2187 201.486 37.4375C202.799 36.6562 204.338 36.2656 206.104 36.2656C207.291 36.2656 208.396 36.457 209.42 36.8398C210.451 37.2148 211.35 37.7812 212.115 38.5391C212.889 39.2969 213.49 40.25 213.92 41.3984C214.35 42.5391 214.564 43.875 214.564 45.4062V46.7773H199.365V43.6836H209.865C209.865 42.9648 209.709 42.3281 209.396 41.7734C209.084 41.2187 208.65 40.7852 208.096 40.4727C207.549 40.1523 206.912 39.9922 206.186 39.9922C205.428 39.9922 204.756 40.168 204.17 40.5195C203.592 40.8633 203.139 41.3281 202.811 41.9141C202.482 42.4922 202.314 43.1367 202.307 43.8477V46.7891C202.307 47.6797 202.471 48.4492 202.799 49.0977C203.135 49.7461 203.607 50.2461 204.217 50.5977C204.826 50.9492 205.549 51.125 206.385 51.125C206.939 51.125 207.447 51.0469 207.908 50.8906C208.369 50.7344 208.764 50.5 209.092 50.1875C209.42 49.875 209.67 49.4922 209.842 49.0391L214.459 49.3438C214.225 50.4531 213.744 51.4219 213.018 52.25C212.299 53.0703 211.369 53.7109 210.229 54.1719C209.096 54.625 207.787 54.8516 206.303 54.8516ZM222.814 30.5V54.5H217.822V30.5H222.814ZM253.415 38C253.157 37.2109 252.817 36.5039 252.396 35.8789C251.981 35.2461 251.485 34.707 250.907 34.2617C250.337 33.8164 249.688 33.4766 248.962 33.2422C248.235 33.0078 247.438 32.8906 246.571 32.8906C245.149 32.8906 243.856 33.2578 242.692 33.9922C241.528 34.7266 240.603 35.8086 239.915 37.2383C239.228 38.668 238.884 40.4219 238.884 42.5C238.884 44.5781 239.231 46.332 239.927 47.7617C240.622 49.1914 241.563 50.2734 242.751 51.0078C243.938 51.7422 245.274 52.1094 246.759 52.1094C248.134 52.1094 249.345 51.8164 250.392 51.2305C251.446 50.6367 252.267 49.8008 252.853 48.7227C253.446 47.6367 253.743 46.3594 253.743 44.8906L254.634 45.0781H247.415V42.5H256.556V45.0781C256.556 47.0547 256.134 48.7734 255.29 50.2344C254.454 51.6953 253.298 52.8281 251.821 53.6328C250.353 54.4297 248.665 54.8281 246.759 54.8281C244.634 54.8281 242.767 54.3281 241.157 53.3281C239.556 52.3281 238.306 50.9062 237.407 49.0625C236.517 47.2187 236.071 45.0312 236.071 42.5C236.071 40.6016 236.325 38.8945 236.833 37.3789C237.349 35.8555 238.075 34.5586 239.013 33.4883C239.95 32.418 241.06 31.5977 242.341 31.0273C243.622 30.457 245.032 30.1719 246.571 30.1719C247.837 30.1719 249.017 30.3633 250.11 30.7461C251.212 31.1211 252.192 31.6562 253.052 32.3516C253.919 33.0391 254.642 33.8633 255.22 34.8242C255.798 35.7773 256.196 36.8359 256.415 38H253.415ZM266.455 54.9219C265.314 54.9219 264.279 54.707 263.35 54.2773C262.42 53.8398 261.682 53.2109 261.135 52.3906C260.588 51.5625 260.314 50.5625 260.314 49.3906C260.314 48.3594 260.518 47.5234 260.924 46.8828C261.33 46.2344 261.873 45.7266 262.553 45.3594C263.232 44.9922 263.982 44.7187 264.803 44.5391C265.631 44.3516 266.463 44.2031 267.299 44.0938C268.393 43.9531 269.279 43.8477 269.959 43.7773C270.646 43.6992 271.146 43.5703 271.459 43.3906C271.779 43.2109 271.939 42.8984 271.939 42.4531V42.3594C271.939 41.2031 271.623 40.3047 270.99 39.6641C270.365 39.0234 269.416 38.7031 268.143 38.7031C266.822 38.7031 265.787 38.9922 265.037 39.5703C264.287 40.1484 263.76 40.7656 263.455 41.4219L260.83 40.4844C261.299 39.3906 261.924 38.5391 262.705 37.9297C263.494 37.3125 264.354 36.8828 265.283 36.6406C266.221 36.3906 267.143 36.2656 268.049 36.2656C268.627 36.2656 269.291 36.3359 270.041 36.4766C270.799 36.6094 271.529 36.8867 272.232 37.3086C272.943 37.7305 273.533 38.3672 274.002 39.2187C274.471 40.0703 274.705 41.2109 274.705 42.6406V54.5H271.939V52.0625H271.799C271.611 52.4531 271.299 52.8711 270.861 53.3164C270.424 53.7617 269.842 54.1406 269.115 54.4531C268.389 54.7656 267.502 54.9219 266.455 54.9219ZM266.877 52.4375C267.971 52.4375 268.893 52.2227 269.643 51.793C270.4 51.3633 270.971 50.8086 271.354 50.1289C271.744 49.4492 271.939 48.7344 271.939 47.9844V45.4531C271.822 45.5937 271.564 45.7227 271.166 45.8398C270.775 45.9492 270.322 46.0469 269.807 46.1328C269.299 46.2109 268.803 46.2812 268.318 46.3437C267.842 46.3984 267.455 46.4453 267.158 46.4844C266.439 46.5781 265.768 46.7305 265.143 46.9414C264.525 47.1445 264.025 47.4531 263.643 47.8672C263.268 48.2734 263.08 48.8281 263.08 49.5312C263.08 50.4922 263.436 51.2187 264.146 51.7109C264.865 52.1953 265.775 52.4375 266.877 52.4375ZM282.519 30.5V54.5H279.753V30.5H282.519ZM292.881 54.9219C291.74 54.9219 290.705 54.707 289.775 54.2773C288.846 53.8398 288.107 53.2109 287.561 52.3906C287.014 51.5625 286.74 50.5625 286.74 49.3906C286.74 48.3594 286.943 47.5234 287.35 46.8828C287.756 46.2344 288.299 45.7266 288.979 45.3594C289.658 44.9922 290.408 44.7187 291.229 44.5391C292.057 44.3516 292.889 44.2031 293.725 44.0938C294.818 43.9531 295.705 43.8477 296.385 43.7773C297.072 43.6992 297.572 43.5703 297.885 43.3906C298.205 43.2109 298.365 42.8984 298.365 42.4531V42.3594C298.365 41.2031 298.049 40.3047 297.416 39.6641C296.791 39.0234 295.842 38.7031 294.568 38.7031C293.248 38.7031 292.213 38.9922 291.463 39.5703C290.713 40.1484 290.186 40.7656 289.881 41.4219L287.256 40.4844C287.725 39.3906 288.35 38.5391 289.131 37.9297C289.92 37.3125 290.779 36.8828 291.709 36.6406C292.646 36.3906 293.568 36.2656 294.475 36.2656C295.053 36.2656 295.717 36.3359 296.467 36.4766C297.225 36.6094 297.955 36.8867 298.658 37.3086C299.369 37.7305 299.959 38.3672 300.428 39.2187C300.896 40.0703 301.131 41.2109 301.131 42.6406V54.5H298.365V52.0625H298.225C298.037 52.4531 297.725 52.8711 297.287 53.3164C296.85 53.7617 296.268 54.1406 295.541 54.4531C294.814 54.7656 293.928 54.9219 292.881 54.9219ZM293.303 52.4375C294.396 52.4375 295.318 52.2227 296.068 51.793C296.826 51.3633 297.396 50.8086 297.779 50.1289C298.17 49.4492 298.365 48.7344 298.365 47.9844V45.4531C298.248 45.5937 297.99 45.7227 297.592 45.8398C297.201 45.9492 296.748 46.0469 296.232 46.1328C295.725 46.2109 295.229 46.2812 294.744 46.3437C294.268 46.3984 293.881 46.4453 293.584 46.4844C292.865 46.5781 292.193 46.7305 291.568 46.9414C290.951 47.1445 290.451 47.4531 290.068 47.8672C289.693 48.2734 289.506 48.8281 289.506 49.5312C289.506 50.4922 289.861 51.2187 290.572 51.7109C291.291 52.1953 292.201 52.4375 293.303 52.4375ZM308.241 36.5L312.554 43.8594L316.866 36.5H320.054L314.241 45.5L320.054 54.5H316.866L312.554 47.5156L308.241 54.5H305.054L310.772 45.5L305.054 36.5H308.241ZM325.781 61.25C325.313 61.25 324.895 61.2109 324.527 61.1328C324.16 61.0625 323.906 60.9922 323.766 60.9219L324.469 58.4844C325.141 58.6563 325.734 58.7188 326.25 58.6719C326.766 58.625 327.223 58.3945 327.621 57.9805C328.027 57.5742 328.398 56.9141 328.734 56L329.25 54.5938L322.594 36.5H325.594L330.563 50.8437H330.75L335.719 36.5H338.719L331.078 57.125C330.734 58.0547 330.309 58.8242 329.801 59.4336C329.293 60.0508 328.703 60.5078 328.031 60.8047C327.367 61.1016 326.617 61.25 325.781 61.25Z" fill="black"/>
<path d="M110.086 54.5H109.086V55.5H110.086V54.5ZM110.086 30.5V29.5H109.086V30.5H110.086ZM115.16 30.5H116.16V29.5H115.16V30.5ZM115.16 50.3164H114.16V51.3164H115.16V50.3164ZM125.449 50.3164H126.449V49.3164H125.449V50.3164ZM125.449 54.5V55.5H126.449V54.5H125.449ZM111.086 54.5V30.5H109.086V54.5H111.086ZM110.086 31.5H115.16V29.5H110.086V31.5ZM114.16 30.5V50.3164H116.16V30.5H114.16ZM115.16 51.3164H125.449V49.3164H115.16V51.3164ZM124.449 50.3164V54.5H126.449V50.3164H124.449ZM125.449 53.5H110.086V55.5H125.449V53.5ZM130.778 54.2422L130.366 55.1534L130.373 55.1563L130.778 54.2422ZM128.646 52.4492L127.806 52.9925L127.812 53.002L128.646 52.4492ZM128.423 46.9531L127.543 46.4778L127.543 46.4778L128.423 46.9531ZM129.923 45.3125L129.375 44.4757L129.375 44.4757L129.923 45.3125ZM132.079 44.375L131.828 43.4071L131.826 43.4077L132.079 44.375ZM134.634 43.9297L134.73 44.9251L134.738 44.9243L134.634 43.9297ZM137.165 43.625L137.31 44.6145L137.322 44.6127L137.165 43.625ZM138.56 43.1797L138 42.3511L138 42.3511L138.56 43.1797ZM138.29 40.5195L137.629 41.2698L137.635 41.2752L138.29 40.5195ZM134.177 40.5078L134.769 41.3135L134.777 41.3078L134.177 40.5078ZM133.122 41.9844L133.041 42.9811L133.855 43.0472L134.083 42.2624L133.122 41.9844ZM128.505 41.6094L127.527 41.3998L127.288 42.5139L128.424 42.6061L128.505 41.6094ZM129.888 38.7734L130.645 39.4267L130.648 39.423L129.888 38.7734ZM132.548 36.9219L132.916 37.8517L132.919 37.8504L132.548 36.9219ZM139.216 36.6172L138.967 37.5859L138.969 37.5864L139.216 36.6172ZM141.665 37.707L141.096 38.5292L141.1 38.5321L141.665 37.707ZM143.364 39.6055L142.483 40.0774L142.485 40.0812L143.364 39.6055ZM143.985 54.5V55.5H144.985V54.5H143.985ZM139.251 54.5H138.251V55.5H139.251V54.5ZM139.251 52.0039H140.251V51.0039H139.251V52.0039ZM139.11 52.0039V51.0039H138.5L138.221 51.5468L139.11 52.0039ZM137.95 53.4922L138.607 54.2463L138.614 54.2403L137.95 53.4922ZM136.204 54.4883L136.53 55.4337L136.54 55.4303L136.204 54.4883ZM137.224 50.9609L137.681 51.8504L137.69 51.8453L137.224 50.9609ZM138.548 49.7656L137.706 49.2262L137.706 49.2262L138.548 49.7656ZM139.028 46.1563H140.028V44.3136L138.483 45.3178L139.028 46.1563ZM138.384 46.4375L138.666 47.3969L138.675 47.3943L138.684 47.3915L138.384 46.4375ZM137.481 46.6602L137.664 47.6433L137.675 47.6412L137.686 47.6389L137.481 46.6602ZM136.474 46.8359L136.612 47.8263L136.623 47.8248L136.634 47.8229L136.474 46.8359ZM135.56 46.9648L135.418 45.9749L135.414 45.9754L135.56 46.9648ZM134.024 47.375L134.418 48.2941L134.418 48.2941L134.024 47.375ZM133.005 48.1367L133.795 48.7493L133.803 48.7398L133.005 48.1367ZM133.38 50.8672L132.79 51.6748L132.797 51.6801L132.805 51.6852L133.38 50.8672ZM133.849 53.8398C132.817 53.8398 131.935 53.6611 131.184 53.328L130.373 55.1563C131.419 55.6201 132.584 55.8398 133.849 55.8398V53.8398ZM131.19 53.331C130.456 52.9989 129.894 52.5221 129.479 51.8964L127.812 53.002C128.444 53.9544 129.304 54.673 130.366 55.1534L131.19 53.331ZM129.485 51.906C129.098 51.3072 128.872 50.5157 128.872 49.4727H126.872C126.872 50.8046 127.162 51.9975 127.806 52.9925L129.485 51.906ZM128.872 49.4727C128.872 48.5911 129.034 47.9254 129.303 47.4284L127.543 46.4778C127.077 47.3402 126.872 48.3542 126.872 49.4727H128.872ZM129.303 47.4284C129.593 46.8917 129.98 46.4703 130.47 46.1493L129.375 44.4757C128.6 44.9828 127.987 45.6552 127.543 46.4778L129.303 47.4284ZM130.47 46.1493C131.004 45.7999 131.622 45.5286 132.333 45.3423L131.826 43.4077C130.927 43.6433 130.107 43.997 129.375 44.4757L130.47 46.1493ZM132.33 45.3429C133.089 45.146 133.888 45.0063 134.73 44.9251L134.538 42.9343C133.598 43.025 132.694 43.1821 131.828 43.4071L132.33 45.3429ZM134.738 44.9243C135.791 44.8142 136.65 44.711 137.31 44.6145L137.02 42.6355C136.399 42.7265 135.57 42.8264 134.53 42.9351L134.738 44.9243ZM137.322 44.6127C138.003 44.5046 138.645 44.3287 139.119 44.0083L138 42.3511C137.896 42.4213 137.608 42.5423 137.008 42.6373L137.322 44.6127ZM139.119 44.0083C139.714 43.6067 139.993 42.9894 139.993 42.3125H137.993C137.993 42.3454 137.99 42.3642 137.988 42.3717C137.987 42.3787 137.987 42.3767 137.99 42.3692C137.994 42.3614 137.999 42.354 138.004 42.3487C138.009 42.3436 138.009 42.345 138 42.3511L139.119 44.0083ZM139.993 42.3125V42.2422H137.993V42.3125H139.993ZM139.993 42.2422C139.993 41.2725 139.676 40.3975 138.945 39.7638L137.635 41.2752C137.842 41.4541 137.993 41.7275 137.993 42.2422H139.993ZM138.951 39.7693C138.248 39.1493 137.322 38.9102 136.321 38.9102V40.9102C137.023 40.9102 137.411 41.0773 137.629 41.2697L138.951 39.7693ZM136.321 38.9102C135.282 38.9102 134.333 39.1406 133.577 39.7078L134.777 41.3078C135.083 41.0782 135.564 40.9102 136.321 40.9102V38.9102ZM133.584 39.7022C132.888 40.214 132.399 40.8863 132.162 41.7063L134.083 42.2624C134.189 41.8949 134.403 41.5829 134.769 41.3135L133.584 39.7022ZM133.203 40.9877L128.586 40.6127L128.424 42.6061L133.041 42.9811L133.203 40.9877ZM129.483 41.8189C129.684 40.8786 130.074 40.0885 130.645 39.4267L129.131 38.1202C128.327 39.0521 127.794 40.1527 127.527 41.3998L129.483 41.8189ZM130.648 39.423C131.219 38.7548 131.966 38.2277 132.916 37.8517L132.18 35.992C130.958 36.4754 129.932 37.1827 129.127 38.1239L130.648 39.423ZM132.919 37.8504C133.872 37.4693 135.007 37.2656 136.345 37.2656V35.2656C134.807 35.2656 133.411 35.4995 132.176 35.9934L132.919 37.8504ZM136.345 37.2656C137.266 37.2656 138.139 37.3735 138.967 37.5859L139.464 35.6485C138.464 35.3921 137.424 35.2656 136.345 35.2656V37.2656ZM138.969 37.5864C139.787 37.7943 140.492 38.1113 141.096 38.5292L142.234 36.8848C141.416 36.3184 140.488 35.9088 139.462 35.648L138.969 37.5864ZM141.1 38.5321C141.685 38.933 142.144 39.4443 142.483 40.0774L144.246 39.1335C143.757 38.2197 143.082 37.4654 142.23 36.8819L141.1 38.5321ZM142.485 40.0812C142.804 40.6708 142.985 41.4175 142.985 42.3594H144.985C144.985 41.1606 144.753 40.0714 144.244 39.1298L142.485 40.0812ZM142.985 42.3594V54.5H144.985V42.3594H142.985ZM143.985 53.5H139.251V55.5H143.985V53.5ZM140.251 54.5V52.0039H138.251V54.5H140.251ZM139.251 51.0039H139.11V53.0039H139.251V51.0039ZM138.221 51.5468C137.99 51.9965 137.681 52.3946 137.287 52.7441L138.614 54.2403C139.189 53.7304 139.653 53.1363 140 52.461L138.221 51.5468ZM137.293 52.7381C136.914 53.0683 136.445 53.3409 135.868 53.5463L136.54 55.4303C137.323 55.1512 138.017 54.7598 138.607 54.2463L137.293 52.7381ZM135.878 53.5429C135.325 53.7337 134.654 53.8398 133.849 53.8398V55.8398C134.825 55.8398 135.724 55.7117 136.53 55.4337L135.878 53.5429ZM135.278 52.3945C136.146 52.3945 136.956 52.223 137.681 51.8504L136.767 50.0715C136.367 50.277 135.879 50.3945 135.278 50.3945V52.3945ZM137.69 51.8453C138.394 51.4737 138.97 50.9609 139.39 50.3051L137.706 49.2262C137.485 49.5704 137.178 49.8544 136.757 50.0766L137.69 51.8453ZM139.39 50.3051C139.82 49.6333 140.028 48.8773 140.028 48.0664H138.028C138.028 48.5211 137.916 48.8979 137.706 49.2262L139.39 50.3051ZM140.028 48.0664V46.1563H138.028V48.0664H140.028ZM138.483 45.3178C138.432 45.3509 138.312 45.4118 138.084 45.4835L138.684 47.3915C139.002 47.2913 139.312 47.1647 139.573 46.9947L138.483 45.3178ZM138.102 45.4781C137.867 45.5472 137.592 45.6153 137.277 45.6814L137.686 47.6389C138.042 47.5644 138.37 47.484 138.666 47.3969L138.102 45.4781ZM137.299 45.677C136.97 45.7382 136.641 45.7955 136.313 45.8489L136.634 47.8229C136.978 47.767 137.321 47.7072 137.664 47.6433L137.299 45.677ZM136.335 45.8455C135.999 45.8925 135.693 45.9356 135.418 45.9749L135.701 47.9548C135.973 47.9159 136.277 47.8731 136.612 47.8263L136.335 45.8455ZM135.414 45.9754C134.763 46.071 134.164 46.2272 133.63 46.4559L134.418 48.2941C134.76 48.1478 135.184 48.0306 135.705 47.9543L135.414 45.9754ZM133.63 46.4559C133.063 46.6991 132.572 47.051 132.207 47.5336L133.803 48.7398C133.922 48.5819 134.111 48.4259 134.418 48.2941L133.63 46.4559ZM132.214 47.5241C131.812 48.0429 131.642 48.6607 131.642 49.3086H133.642C133.642 49.019 133.713 48.8555 133.795 48.7493L132.214 47.5241ZM131.642 49.3086C131.642 50.265 132.008 51.1034 132.79 51.6748L133.97 50.0596C133.768 49.9122 133.642 49.7115 133.642 49.3086H131.642ZM132.805 51.6852C133.511 52.1821 134.359 52.3945 135.278 52.3945V50.3945C134.666 50.3945 134.248 50.2554 133.955 50.0492L132.805 51.6852ZM147.858 54.5H146.858V55.5H147.858V54.5ZM147.858 36.5V35.5H146.858V36.5H147.858ZM152.698 36.5H153.698V35.5H152.698V36.5ZM152.698 39.6406H151.698V40.6406H152.698V39.6406ZM152.886 39.6406V40.6406H153.634L153.845 39.9224L152.886 39.6406ZM154.538 37.1094L155.132 37.9142L155.137 37.9103L154.538 37.1094ZM158.019 36.2891L158.126 35.2949L158.126 35.2949L158.019 36.2891ZM158.78 36.418H159.78V35.6372L159.023 35.4478L158.78 36.418ZM158.78 40.8477L158.493 41.8055L159.78 42.1917V40.8477H158.78ZM154.702 41.0586L155.183 41.9356L155.187 41.9333L154.702 41.0586ZM153.343 42.3711L152.484 41.8583L152.479 41.8672L153.343 42.3711ZM152.851 54.5V55.5H153.851V54.5H152.851ZM148.858 54.5V36.5H146.858V54.5H148.858ZM147.858 37.5H152.698V35.5H147.858V37.5ZM151.698 36.5V39.6406H153.698V36.5H151.698ZM152.698 40.6406H152.886V38.6406H152.698V40.6406ZM153.845 39.9224C154.125 38.9693 154.569 38.3292 155.132 37.9142L153.945 36.3045C152.961 37.0301 152.303 38.0776 151.926 39.3588L153.845 39.9224ZM155.137 37.9103C155.729 37.4673 156.408 37.2422 157.21 37.2422V35.2422C155.996 35.2422 154.894 35.5952 153.939 36.3084L155.137 37.9103ZM157.21 37.2422C157.419 37.2422 157.652 37.2553 157.911 37.2833L158.126 35.2949C157.807 35.2604 157.501 35.2422 157.21 35.2422V37.2422ZM157.911 37.2833C158.167 37.3109 158.374 37.3472 158.538 37.3881L159.023 35.4478C158.749 35.3794 158.448 35.3297 158.126 35.2949L157.911 37.2833ZM157.78 36.418V40.8477H159.78V36.418H157.78ZM159.068 39.8898C158.759 39.7972 158.374 39.7263 157.939 39.6688L157.677 41.6515C158.069 41.7034 158.333 41.7575 158.493 41.8055L159.068 39.8898ZM157.939 39.6688C157.49 39.6095 157.067 39.5781 156.671 39.5781V41.5781C156.963 41.5781 157.297 41.6014 157.677 41.6515L157.939 39.6688ZM156.671 39.5781C155.786 39.5781 154.96 39.7726 154.218 40.1839L155.187 41.9333C155.601 41.704 156.087 41.5781 156.671 41.5781V39.5781ZM154.222 40.1816C153.494 40.5804 152.911 41.1441 152.484 41.8584L154.201 42.8838C154.447 42.473 154.77 42.1618 155.183 41.9356L154.222 40.1816ZM152.479 41.8672C152.051 42.6014 151.851 43.4281 151.851 44.3164H153.851C153.851 43.736 153.979 43.2658 154.207 42.875L152.479 41.8672ZM151.851 44.3164V54.5H153.851V44.3164H151.851ZM152.851 53.5H147.858V55.5H152.851V53.5ZM162.908 54.2422L162.496 55.1534L162.503 55.1563L162.908 54.2422ZM160.775 52.4492L159.936 52.9925L159.942 53.002L160.775 52.4492ZM160.553 46.9531L159.673 46.4778L159.673 46.4778L160.553 46.9531ZM162.053 45.3125L161.505 44.4757L161.505 44.4757L162.053 45.3125ZM164.209 44.375L163.958 43.4071L163.955 43.4077L164.209 44.375ZM166.764 43.9297L166.86 44.9251L166.868 44.9243L166.764 43.9297ZM169.295 43.625L169.44 44.6145L169.452 44.6127L169.295 43.625ZM170.689 43.1797L170.13 42.3511L170.13 42.3511L170.689 43.1797ZM170.42 40.5195L169.759 41.2698L169.765 41.2752L170.42 40.5195ZM166.307 40.5078L166.899 41.3135L166.907 41.3078L166.307 40.5078ZM165.252 41.9844L165.171 42.9811L165.985 43.0472L166.213 42.2624L165.252 41.9844ZM160.635 41.6094L159.657 41.3998L159.418 42.5139L160.554 42.6061L160.635 41.6094ZM162.018 38.7734L162.775 39.4267L162.778 39.423L162.018 38.7734ZM164.678 36.9219L165.046 37.8517L165.049 37.8504L164.678 36.9219ZM171.346 36.6172L171.097 37.5859L171.099 37.5864L171.346 36.6172ZM173.795 37.707L173.226 38.5292L173.23 38.5321L173.795 37.707ZM175.494 39.6055L174.613 40.0774L174.615 40.0812L175.494 39.6055ZM176.115 54.5V55.5H177.115V54.5H176.115ZM171.381 54.5H170.381V55.5H171.381V54.5ZM171.381 52.0039H172.381V51.0039H171.381V52.0039ZM171.24 52.0039V51.0039H170.63L170.351 51.5468L171.24 52.0039ZM170.08 53.4922L170.737 54.2463L170.744 54.2403L170.08 53.4922ZM168.334 54.4883L168.66 55.4337L168.67 55.4303L168.334 54.4883ZM169.354 50.9609L169.811 51.8504L169.82 51.8453L169.354 50.9609ZM170.678 49.7656L169.836 49.2262L169.836 49.2262L170.678 49.7656ZM171.158 46.1563H172.158V44.3136L170.613 45.3178L171.158 46.1563ZM170.514 46.4375L170.796 47.3969L170.805 47.3943L170.813 47.3915L170.514 46.4375ZM169.611 46.6602L169.794 47.6433L169.805 47.6412L169.816 47.6389L169.611 46.6602ZM168.604 46.8359L168.742 47.8263L168.753 47.8248L168.764 47.8229L168.604 46.8359ZM167.689 46.9648L167.548 45.9749L167.544 45.9754L167.689 46.9648ZM166.154 47.375L166.548 48.2941L166.548 48.2941L166.154 47.375ZM165.135 48.1367L165.925 48.7493L165.932 48.7398L165.135 48.1367ZM165.51 50.8672L164.92 51.6748L164.927 51.6801L164.935 51.6852L165.51 50.8672ZM165.979 53.8398C164.946 53.8398 164.065 53.6611 163.314 53.328L162.503 55.1563C163.549 55.6201 164.714 55.8398 165.979 55.8398V53.8398ZM163.32 53.331C162.586 52.9989 162.024 52.5221 161.609 51.8964L159.942 53.002C160.574 53.9544 161.434 54.673 162.496 55.1534L163.32 53.331ZM161.615 51.906C161.228 51.3072 161.002 50.5157 161.002 49.4727H159.002C159.002 50.8046 159.292 51.9975 159.936 52.9925L161.615 51.906ZM161.002 49.4727C161.002 48.5911 161.164 47.9254 161.433 47.4284L159.673 46.4778C159.207 47.3402 159.002 48.3542 159.002 49.4727H161.002ZM161.433 47.4284C161.723 46.8917 162.11 46.4703 162.6 46.1493L161.505 44.4757C160.73 44.9828 160.117 45.6552 159.673 46.4778L161.433 47.4284ZM162.6 46.1493C163.134 45.7999 163.752 45.5286 164.463 45.3423L163.955 43.4077C163.057 43.6433 162.237 43.997 161.505 44.4757L162.6 46.1493ZM164.46 45.3429C165.219 45.146 166.018 45.0063 166.86 44.9251L166.668 42.9343C165.728 43.025 164.824 43.1821 163.958 43.4071L164.46 45.3429ZM166.868 44.9243C167.921 44.8142 168.78 44.711 169.44 44.6145L169.15 42.6355C168.529 42.7265 167.7 42.8264 166.66 42.9351L166.868 44.9243ZM169.452 44.6127C170.133 44.5046 170.775 44.3287 171.249 44.0083L170.13 42.3511C170.026 42.4213 169.738 42.5423 169.138 42.6373L169.452 44.6127ZM171.249 44.0083C171.844 43.6067 172.123 42.9894 172.123 42.3125H170.123C170.123 42.3454 170.12 42.3642 170.118 42.3717C170.117 42.3787 170.116 42.3767 170.12 42.3692C170.124 42.3614 170.129 42.354 170.134 42.3487C170.139 42.3436 170.139 42.345 170.13 42.3511L171.249 44.0083ZM172.123 42.3125V42.2422H170.123V42.3125H172.123ZM172.123 42.2422C172.123 41.2725 171.806 40.3975 171.075 39.7638L169.765 41.2752C169.971 41.4541 170.123 41.7275 170.123 42.2422H172.123ZM171.081 39.7693C170.378 39.1493 169.452 38.9102 168.451 38.9102V40.9102C169.153 40.9102 169.54 41.0773 169.759 41.2697L171.081 39.7693ZM168.451 38.9102C167.412 38.9102 166.463 39.1406 165.707 39.7078L166.907 41.3078C167.213 41.0782 167.694 40.9102 168.451 40.9102V38.9102ZM165.714 39.7022C165.018 40.214 164.529 40.8863 164.291 41.7063L166.213 42.2624C166.319 41.8949 166.533 41.5829 166.899 41.3135L165.714 39.7022ZM165.333 40.9877L160.716 40.6127L160.554 42.6061L165.171 42.9811L165.333 40.9877ZM161.613 41.8189C161.814 40.8786 162.204 40.0885 162.775 39.4267L161.26 38.1202C160.456 39.0521 159.924 40.1527 159.657 41.3998L161.613 41.8189ZM162.778 39.423C163.349 38.7548 164.095 38.2277 165.046 37.8517L164.31 35.992C163.088 36.4754 162.061 37.1827 161.257 38.1239L162.778 39.423ZM165.049 37.8504C166.002 37.4693 167.137 37.2656 168.475 37.2656V35.2656C166.937 35.2656 165.541 35.4995 164.306 35.9934L165.049 37.8504ZM168.475 37.2656C169.396 37.2656 170.269 37.3735 171.097 37.5859L171.594 35.6485C170.594 35.3921 169.553 35.2656 168.475 35.2656V37.2656ZM171.099 37.5864C171.917 37.7943 172.622 38.1113 173.226 38.5292L174.364 36.8848C173.546 36.3184 172.618 35.9088 171.592 35.648L171.099 37.5864ZM173.23 38.5321C173.815 38.933 174.274 39.4443 174.613 40.0774L176.376 39.1335C175.887 38.2197 175.212 37.4654 174.36 36.8819L173.23 38.5321ZM174.615 40.0812C174.933 40.6708 175.115 41.4175 175.115 42.3594H177.115C177.115 41.1606 176.883 40.0714 176.374 39.1298L174.615 40.0812ZM175.115 42.3594V54.5H177.115V42.3594H175.115ZM176.115 53.5H171.381V55.5H176.115V53.5ZM172.381 54.5V52.0039H170.381V54.5H172.381ZM171.381 51.0039H171.24V53.0039H171.381V51.0039ZM170.351 51.5468C170.12 51.9965 169.81 52.3946 169.416 52.7441L170.744 54.2403C171.318 53.7304 171.783 53.1363 172.13 52.461L170.351 51.5468ZM169.423 52.7381C169.044 53.0683 168.575 53.3409 167.998 53.5463L168.67 55.4303C169.453 55.1512 170.147 54.7598 170.737 54.2463L169.423 52.7381ZM168.008 53.5429C167.455 53.7337 166.784 53.8398 165.979 53.8398V55.8398C166.955 55.8398 167.854 55.7117 168.66 55.4337L168.008 53.5429ZM167.408 52.3945C168.276 52.3945 169.085 52.223 169.811 51.8504L168.896 50.0715C168.497 50.277 168.009 50.3945 167.408 50.3945V52.3945ZM169.82 51.8453C170.524 51.4737 171.1 50.9609 171.52 50.3051L169.836 49.2262C169.615 49.5704 169.308 49.8544 168.887 50.0766L169.82 51.8453ZM171.52 50.3051C171.95 49.6333 172.158 48.8773 172.158 48.0664H170.158C170.158 48.5211 170.046 48.8979 169.836 49.2262L171.52 50.3051ZM172.158 48.0664V46.1563H170.158V48.0664H172.158ZM170.613 45.3178C170.562 45.3509 170.442 45.4118 170.214 45.4835L170.813 47.3915C171.132 47.2913 171.442 47.1647 171.703 46.9947L170.613 45.3178ZM170.232 45.4781C169.997 45.5472 169.722 45.6153 169.406 45.6814L169.816 47.6389C170.172 47.5644 170.5 47.484 170.796 47.3969L170.232 45.4781ZM169.428 45.677C169.1 45.7382 168.771 45.7955 168.443 45.8489L168.764 47.8229C169.108 47.767 169.451 47.7072 169.794 47.6433L169.428 45.677ZM168.465 45.8455C168.129 45.8925 167.823 45.9356 167.548 45.9749L167.831 47.9548C168.103 47.9159 168.407 47.8731 168.742 47.8263L168.465 45.8455ZM167.544 45.9754C166.893 46.071 166.294 46.2272 165.76 46.4559L166.548 48.2941C166.89 48.1478 167.314 48.0306 167.835 47.9543L167.544 45.9754ZM165.76 46.4559C165.193 46.6991 164.702 47.051 164.337 47.5336L165.932 48.7398C166.052 48.5819 166.241 48.4259 166.548 48.2941L165.76 46.4559ZM164.344 47.5241C163.942 48.0429 163.771 48.6607 163.771 49.3086H165.771C165.771 49.019 165.843 48.8555 165.925 48.7493L164.344 47.5241ZM163.771 49.3086C163.771 50.265 164.138 51.1034 164.92 51.6748L166.099 50.0596C165.898 49.9122 165.771 49.7115 165.771 49.3086H163.771ZM164.935 51.6852C165.641 52.1821 166.489 52.3945 167.408 52.3945V50.3945C166.796 50.3945 166.378 50.2554 166.085 50.0492L164.935 51.6852ZM196.125 36.5L197.069 36.83L197.534 35.5H196.125V36.5ZM189.832 54.5V55.5H190.542L190.776 54.83L189.832 54.5ZM184.207 54.5L183.263 54.83L183.497 55.5H184.207V54.5ZM177.914 36.5V35.5H176.505L176.97 36.83L177.914 36.5ZM183.188 36.5L184.148 36.2212L183.939 35.5H183.188V36.5ZM186.926 49.3789L185.965 49.6577L186.175 50.3789H186.926V49.3789ZM187.113 49.3789V50.3789H187.865L188.074 49.6569L187.113 49.3789ZM190.84 36.5V35.5H190.088L189.879 36.222L190.84 36.5ZM195.181 36.17L188.888 54.17L190.776 54.83L197.069 36.83L195.181 36.17ZM189.832 53.5H184.207V55.5H189.832V53.5ZM185.151 54.17L178.858 36.17L176.97 36.83L183.263 54.83L185.151 54.17ZM177.914 37.5H183.188V35.5H177.914V37.5ZM182.227 36.7788L185.965 49.6577L187.886 49.1001L184.148 36.2212L182.227 36.7788ZM186.926 50.3789H187.113V48.3789H186.926V50.3789ZM188.074 49.6569L191.8 36.778L189.879 36.222L186.153 49.101L188.074 49.6569ZM190.84 37.5H196.125V35.5H190.84V37.5ZM201.521 53.7266L201.026 54.5951L201.032 54.5985L201.521 53.7266ZM198.451 50.5156L197.563 50.9748L197.564 50.9768L198.451 50.5156ZM198.451 40.707L197.562 40.2499L197.562 40.2499L198.451 40.707ZM201.486 37.4375L200.975 36.5782L200.973 36.5796L201.486 37.4375ZM209.42 36.8398L209.07 37.7765L209.078 37.7796L209.42 36.8398ZM212.115 38.5391L211.412 39.2498L211.415 39.2533L212.115 38.5391ZM213.92 41.3984L212.983 41.7489L212.984 41.751L213.92 41.3984ZM214.564 46.7773V47.7773H215.564V46.7773H214.564ZM199.365 46.7773H198.365V47.7773H199.365V46.7773ZM199.365 43.6836V42.6836H198.365V43.6836H199.365ZM209.865 43.6836V44.6836H210.865V43.6836H209.865ZM209.396 41.7734L208.525 42.2643L208.525 42.2643L209.396 41.7734ZM208.096 40.4727L207.59 41.3355L207.598 41.3398L207.605 41.3439L208.096 40.4727ZM204.17 40.5195L204.681 41.3791L204.684 41.377L204.17 40.5195ZM202.811 41.9141L203.68 42.4077L203.683 42.4027L202.811 41.9141ZM202.307 43.8477L201.307 43.8367V43.8477H202.307ZM202.799 49.0977L201.907 49.5492L201.911 49.5577L202.799 49.0977ZM207.908 50.8906L207.587 49.9436L207.587 49.9436L207.908 50.8906ZM209.092 50.1875L208.402 49.4634L208.402 49.4634L209.092 50.1875ZM209.842 49.0391L209.908 48.0412L209.169 47.9925L208.907 48.6844L209.842 49.0391ZM214.459 49.3438L215.437 49.5505L215.676 48.4219L214.525 48.3459L214.459 49.3438ZM213.018 52.25L212.266 51.5905L212.265 51.591L213.018 52.25ZM210.229 54.1719L210.6 55.1004L210.603 55.099L210.229 54.1719ZM206.303 53.8516C204.587 53.8516 203.169 53.5048 202.011 52.8546L201.032 54.5985C202.546 55.4483 204.315 55.8516 206.303 55.8516V53.8516ZM202.017 52.858C200.859 52.1974 199.97 51.2701 199.338 50.0544L197.564 50.9768C198.37 52.5268 199.527 53.7401 201.026 54.5951L202.017 52.858ZM199.34 50.0565C198.708 48.8349 198.373 47.3543 198.373 45.582H196.373C196.373 47.6066 196.757 49.4151 197.563 50.9748L199.34 50.0565ZM198.373 45.582C198.373 43.8613 198.706 42.3981 199.341 41.1642L197.562 40.2499C196.758 41.8128 196.373 43.5996 196.373 45.582H198.373ZM199.341 41.1642C199.977 39.9258 200.861 38.9774 202 38.2954L200.973 36.5796C199.502 37.4601 198.363 38.6913 197.562 40.2499L199.341 41.1642ZM201.998 38.2968C203.133 37.6212 204.489 37.2656 206.104 37.2656V35.2656C204.186 35.2656 202.465 35.6913 200.975 36.5782L201.998 38.2968ZM206.104 37.2656C207.182 37.2656 208.168 37.4391 209.07 37.7765L209.77 35.9032C208.625 35.475 207.4 35.2656 206.104 35.2656V37.2656ZM209.078 37.7796C209.976 38.1062 210.751 38.5955 211.412 39.2498L212.819 37.8283C211.949 36.967 210.926 36.3234 209.762 35.9001L209.078 37.7796ZM211.415 39.2533C212.071 39.8959 212.598 40.7194 212.983 41.7489L214.857 41.048C214.382 39.7806 213.706 38.6979 212.815 37.8248L211.415 39.2533ZM212.984 41.751C213.362 42.7542 213.564 43.9658 213.564 45.4062H215.564C215.564 43.7842 215.337 42.324 214.856 41.0459L212.984 41.751ZM213.564 45.4062V46.7773H215.564V45.4062H213.564ZM214.564 45.7773H199.365V47.7773H214.564V45.7773ZM200.365 46.7773V43.6836H198.365V46.7773H200.365ZM199.365 44.6836H209.865V42.6836H199.365V44.6836ZM210.865 43.6836C210.865 42.8154 210.675 42.0056 210.268 41.2826L208.525 42.2643C208.743 42.6506 208.865 43.1142 208.865 43.6836H210.865ZM210.268 41.2826C209.866 40.5687 209.3 40.0036 208.587 39.6014L207.605 41.3439C208 41.5667 208.302 41.8688 208.525 42.2643L210.268 41.2826ZM208.601 39.6098C207.88 39.1872 207.063 38.9922 206.186 38.9922V40.9922C206.761 40.9922 207.218 41.1175 207.59 41.3355L208.601 39.6098ZM206.186 38.9922C205.267 38.9922 204.413 39.2073 203.655 39.662L204.684 41.377C205.098 41.1286 205.589 40.9922 206.186 40.9922V38.9922ZM203.659 39.66C202.93 40.0934 202.352 40.686 201.938 41.4255L203.683 42.4027C203.925 41.9702 204.254 41.6332 204.681 41.3791L203.659 39.66ZM201.941 41.4205C201.523 42.156 201.316 42.9686 201.307 43.8367L203.307 43.8586C203.313 43.3049 203.441 42.8283 203.68 42.4077L201.941 41.4205ZM201.307 43.8477V46.7891H203.307V43.8477H201.307ZM201.307 46.7891C201.307 47.8017 201.493 48.7327 201.907 49.5492L203.691 48.6461C203.448 48.1657 203.307 47.5576 203.307 46.7891H201.307ZM201.911 49.5577C202.331 50.369 202.936 51.013 203.717 51.4638L204.717 49.7315C204.279 49.4792 203.938 49.1232 203.687 48.6377L201.911 49.5577ZM203.717 51.4638C204.505 51.9183 205.407 52.125 206.385 52.125V50.125C205.691 50.125 205.148 49.9802 204.717 49.7315L203.717 51.4638ZM206.385 52.125C207.034 52.125 207.652 52.0335 208.229 51.8377L207.587 49.9436C207.243 50.0602 206.845 50.125 206.385 50.125V52.125ZM208.229 51.8377C208.817 51.6383 209.34 51.3316 209.781 50.9116L208.402 49.4634C208.187 49.6684 207.921 49.8304 207.587 49.9436L208.229 51.8377ZM209.781 50.9116C210.225 50.4888 210.556 49.9769 210.777 49.3937L208.907 48.6844C208.784 49.0075 208.614 49.2612 208.402 49.4634L209.781 50.9116ZM209.776 50.0369L214.393 50.3416L214.525 48.3459L209.908 48.0412L209.776 50.0369ZM213.481 49.137C213.281 50.0837 212.876 50.8952 212.266 51.5905L213.769 52.9095C214.612 51.9485 215.169 50.8226 215.437 49.5505L213.481 49.137ZM212.265 51.591C211.662 52.2793 210.868 52.8348 209.854 53.2447L210.603 55.099C211.87 54.587 212.935 53.8613 213.77 52.909L212.265 51.591ZM209.857 53.2434C208.865 53.6402 207.687 53.8516 206.303 53.8516V55.8516C207.888 55.8516 209.326 55.6098 210.6 55.1004L209.857 53.2434ZM222.814 30.5H223.814V29.5H222.814V30.5ZM222.814 54.5V55.5H223.814V54.5H222.814ZM217.822 54.5H216.822V55.5H217.822V54.5ZM217.822 30.5V29.5H216.822V30.5H217.822ZM221.814 30.5V54.5H223.814V30.5H221.814ZM222.814 53.5H217.822V55.5H222.814V53.5ZM218.822 54.5V30.5H216.822V54.5H218.822ZM217.822 31.5H222.814V29.5H217.822V31.5ZM253.415 38L252.464 38.3106L252.69 39H253.415V38ZM252.396 35.8789L251.559 36.4264L251.563 36.4324L251.567 36.4384L252.396 35.8789ZM250.907 34.2617L250.292 35.0499L250.297 35.0539L250.907 34.2617ZM248.962 33.2422L249.269 32.2905L249.269 32.2905L248.962 33.2422ZM239.915 37.2383L240.816 37.6717L240.816 37.6717L239.915 37.2383ZM239.927 47.7617L239.027 48.1991L239.027 48.1991L239.927 47.7617ZM250.392 51.2305L250.88 52.1031L250.882 52.1019L250.392 51.2305ZM252.853 48.7227L251.975 48.2429L251.974 48.2451L252.853 48.7227ZM253.743 44.8906L253.949 43.9121L252.743 43.6582V44.8906H253.743ZM254.634 45.0781V46.0781L254.84 44.0996L254.634 45.0781ZM247.415 45.0781H246.415V46.0781H247.415V45.0781ZM247.415 42.5V41.5H246.415V42.5H247.415ZM256.556 42.5H257.556V41.5H256.556V42.5ZM255.29 50.2344L254.424 49.7342L254.422 49.7377L255.29 50.2344ZM251.821 53.6328L252.298 54.5118L252.3 54.5109L251.821 53.6328ZM241.157 53.3281L240.628 54.1764L240.629 54.1775L241.157 53.3281ZM237.407 49.0625L236.507 49.4975L236.508 49.5005L237.407 49.0625ZM236.833 37.3789L235.886 37.0583L235.885 37.0612L236.833 37.3789ZM239.013 33.4883L239.765 34.1472L239.765 34.1472L239.013 33.4883ZM250.11 30.7461L249.78 31.69L249.788 31.6927L250.11 30.7461ZM253.052 32.3516L252.423 33.129L252.431 33.1352L253.052 32.3516ZM255.22 34.8242L254.363 35.3397L254.365 35.3428L255.22 34.8242ZM256.415 38V39H257.62L257.398 37.8153L256.415 38ZM254.366 37.6894C254.082 36.821 253.703 36.0287 253.224 35.3194L251.567 36.4384C251.932 36.9791 252.233 37.6009 252.464 38.3106L254.366 37.6894ZM253.232 35.3314C252.759 34.6083 252.187 33.9856 251.517 33.4695L250.297 35.0539C250.783 35.4285 251.204 35.8838 251.559 36.4264L253.232 35.3314ZM251.523 33.4735C250.855 32.9521 250.101 32.5589 249.269 32.2905L248.655 34.1939C249.276 34.3943 249.819 34.6807 250.292 35.0499L251.523 33.4735ZM249.269 32.2905C248.431 32.0201 247.529 31.8906 246.571 31.8906V33.8906C247.348 33.8906 248.04 33.9955 248.655 34.1939L249.269 32.2905ZM246.571 31.8906C244.967 31.8906 243.488 32.3078 242.159 33.1464L243.226 34.8379C244.225 34.2078 245.332 33.8906 246.571 33.8906V31.8906ZM242.159 33.1464C240.813 33.9956 239.77 35.2323 239.014 36.8049L240.816 37.6717C241.435 36.3849 242.244 35.4576 243.226 34.8379L242.159 33.1464ZM239.014 36.8049C238.244 38.405 237.884 40.3164 237.884 42.5H239.884C239.884 40.5273 240.211 38.931 240.816 37.6717L239.014 36.8049ZM237.884 42.5C237.884 44.6849 238.249 46.5979 239.027 48.1991L240.826 47.3244C240.214 46.0661 239.884 44.4713 239.884 42.5H237.884ZM239.027 48.1991C239.794 49.7748 240.855 51.0111 242.225 51.8583L243.277 50.1573C242.272 49.5358 241.45 48.608 240.826 47.3244L239.027 48.1991ZM242.225 51.8583C243.581 52.6967 245.101 53.1094 246.759 53.1094V51.1094C245.448 51.1094 244.296 50.7877 243.277 50.1573L242.225 51.8583ZM246.759 53.1094C248.28 53.1094 249.663 52.7841 250.88 52.1031L249.903 50.3579C249.026 50.8487 247.988 51.1094 246.759 51.1094V53.1094ZM250.882 52.1019C252.103 51.4146 253.057 50.441 253.731 49.2002L251.974 48.2451C251.476 49.1605 250.79 49.8589 249.901 50.3591L250.882 52.1019ZM253.73 49.2024C254.418 47.9441 254.743 46.4957 254.743 44.8906H252.743C252.743 46.223 252.475 47.3293 251.975 48.2429L253.73 49.2024ZM253.537 45.8692L254.428 46.0567L254.84 44.0996L253.949 43.9121L253.537 45.8692ZM254.634 44.0781H247.415V46.0781H254.634V44.0781ZM248.415 45.0781V42.5H246.415V45.0781H248.415ZM247.415 43.5H256.556V41.5H247.415V43.5ZM255.556 42.5V45.0781H257.556V42.5H255.556ZM255.556 45.0781C255.556 46.9095 255.166 48.4497 254.424 49.7343L256.156 50.7345C257.102 49.0972 257.556 47.1999 257.556 45.0781H255.556ZM254.422 49.7377C253.678 51.0381 252.657 52.0388 251.343 52.7547L252.3 54.5109C253.939 53.6175 255.23 52.3525 256.158 50.731L254.422 49.7377ZM251.344 52.7538C250.042 53.4607 248.522 53.8281 246.759 53.8281V55.8281C248.808 55.8281 250.664 55.3987 252.298 54.5118L251.344 52.7538ZM246.759 53.8281C244.797 53.8281 243.117 53.3687 241.685 52.4787L240.629 54.1775C242.416 55.2876 244.471 55.8281 246.759 55.8281V53.8281ZM241.687 52.4799C240.258 51.5878 239.13 50.3146 238.306 48.6245L236.508 49.5005C237.482 51.4979 238.853 53.0684 240.628 54.1764L241.687 52.4799ZM238.308 48.6275C237.496 46.9476 237.071 44.9154 237.071 42.5H235.071C235.071 45.1471 235.537 47.4899 236.507 49.4975L238.308 48.6275ZM237.071 42.5C237.071 40.6899 237.313 39.0927 237.781 37.6966L235.885 37.0612C235.337 38.6964 235.071 40.5133 235.071 42.5H237.071ZM237.78 37.6995C238.259 36.2844 238.925 35.1066 239.765 34.1472L238.26 32.8294C237.226 34.0106 236.438 35.4266 235.886 37.0583L237.78 37.6995ZM239.765 34.1472C240.608 33.1841 241.6 32.4515 242.747 31.9409L241.934 30.1138C240.519 30.7438 239.292 31.6518 238.26 32.8294L239.765 34.1472ZM242.747 31.9409C243.889 31.4329 245.159 31.1719 246.571 31.1719V29.1719C244.906 29.1719 243.355 29.4811 241.934 30.1138L242.747 31.9409ZM246.571 31.1719C247.735 31.1719 248.802 31.3476 249.78 31.69L250.441 29.8022C249.231 29.379 247.939 29.1719 246.571 29.1719V31.1719ZM249.788 31.6927C250.784 32.0318 251.66 32.5115 252.423 33.129L253.681 31.5742C252.725 30.801 251.64 30.2104 250.433 29.7994L249.788 31.6927ZM252.431 33.1352C253.202 33.7472 253.846 34.4802 254.363 35.3397L256.077 34.3087C255.437 33.2464 254.635 32.331 253.673 31.5679L252.431 33.1352ZM254.365 35.3428C254.877 36.1869 255.234 37.1313 255.432 38.1847L257.398 37.8153C257.158 36.5406 256.719 35.3677 256.075 34.3056L254.365 35.3428ZM256.415 37H253.415V39H256.415V37ZM263.35 54.2773L262.924 55.1822L262.93 55.1851L263.35 54.2773ZM261.135 52.3906L260.3 52.9417L260.303 52.9453L261.135 52.3906ZM260.924 46.8828L261.768 47.4184L261.771 47.4137L260.924 46.8828ZM264.803 44.5391L265.017 45.5159L265.024 45.5144L264.803 44.5391ZM267.299 44.0938L267.171 43.1019L267.169 43.1022L267.299 44.0938ZM269.959 43.7773L270.062 44.7721L270.072 44.7709L269.959 43.7773ZM271.459 43.3906L270.97 42.5184L270.961 42.5237L271.459 43.3906ZM270.99 39.6641L270.274 40.3624L270.279 40.3668L270.99 39.6641ZM265.037 39.5703L265.648 40.3623L265.648 40.3623L265.037 39.5703ZM263.455 41.4219L263.119 42.3636L263.978 42.6705L264.362 41.843L263.455 41.4219ZM260.83 40.4844L259.911 40.0905L259.492 41.0683L260.494 41.4261L260.83 40.4844ZM262.705 37.9297L263.32 38.7182L263.321 38.7174L262.705 37.9297ZM265.283 36.6406L265.535 37.6083L265.541 37.6069L265.283 36.6406ZM270.041 36.4766L269.857 37.4595L269.868 37.4615L270.041 36.4766ZM272.232 37.3086L271.718 38.1661L271.722 38.1686L272.232 37.3086ZM274.002 39.2187L273.126 39.701L273.126 39.701L274.002 39.2187ZM274.705 54.5V55.5H275.705V54.5H274.705ZM271.939 54.5H270.939V55.5H271.939V54.5ZM271.939 52.0625H272.939V51.0625H271.939V52.0625ZM271.799 52.0625V51.0625H271.17L270.897 51.6298L271.799 52.0625ZM270.861 53.3164L271.575 54.0172L271.575 54.0172L270.861 53.3164ZM269.115 54.4531L268.72 53.5345L268.72 53.5345L269.115 54.4531ZM269.643 51.793L269.149 50.9231L269.145 50.9253L269.643 51.793ZM271.354 50.1289L270.486 49.6306L270.482 49.6382L271.354 50.1289ZM271.939 45.4531H272.939V42.6911L271.171 44.8129L271.939 45.4531ZM271.166 45.8398L271.436 46.8029L271.448 46.7992L271.166 45.8398ZM269.807 46.1328L269.959 47.1213L269.971 47.1192L269.807 46.1328ZM268.318 46.3437L268.432 47.3373L268.446 47.3355L268.318 46.3437ZM267.158 46.4844L267.288 47.476L267.289 47.4758L267.158 46.4844ZM265.143 46.9414L265.455 47.8913L265.462 47.8889L265.143 46.9414ZM263.643 47.8672L262.908 47.1883L262.908 47.1889L263.643 47.8672ZM264.146 51.7109L263.577 52.5332L263.588 52.5402L264.146 51.7109ZM266.455 53.9219C265.443 53.9219 264.553 53.7319 263.769 53.3696L262.93 55.1851C264.006 55.6821 265.186 55.9219 266.455 55.9219V53.9219ZM263.775 53.3725C263.003 53.0091 262.408 52.4982 261.967 51.8359L260.303 52.9453C260.955 53.9237 261.837 54.6705 262.924 55.1822L263.775 53.3725ZM261.969 51.8396C261.549 51.2027 261.314 50.4027 261.314 49.3906H259.314C259.314 50.7223 259.627 51.9223 260.3 52.9417L261.969 51.8396ZM261.314 49.3906C261.314 48.483 261.494 47.851 261.768 47.4184L260.079 46.3473C259.541 47.1959 259.314 48.2358 259.314 49.3906H261.314ZM261.771 47.4137C262.085 46.9133 262.499 46.525 263.028 46.2392L262.077 44.4796C261.247 44.9281 260.575 45.5555 260.076 46.3519L261.771 47.4137ZM263.028 46.2392C263.619 45.9201 264.28 45.6773 265.017 45.5159L264.589 43.5622C263.685 43.7602 262.846 44.0643 262.077 44.4796L263.028 46.2392ZM265.024 45.5144C265.822 45.3336 266.623 45.1906 267.429 45.0853L267.169 43.1022C266.302 43.2156 265.44 43.3695 264.582 43.5637L265.024 45.5144ZM267.426 45.0856C268.516 44.9455 269.394 44.8411 270.062 44.772L269.856 42.7827C269.165 42.8542 268.269 42.9608 267.171 43.1019L267.426 45.0856ZM270.072 44.7709C270.793 44.689 271.462 44.5426 271.957 44.2575L270.961 42.5237C270.831 42.598 270.5 42.7095 269.846 42.7837L270.072 44.7709ZM271.948 44.2628C272.656 43.8657 272.939 43.1692 272.939 42.4531H270.939C270.939 42.5586 270.92 42.583 270.929 42.5654C270.934 42.5563 270.942 42.544 270.954 42.5324C270.965 42.5211 270.972 42.5171 270.97 42.5185L271.948 44.2628ZM272.939 42.4531V42.3594H270.939V42.4531H272.939ZM272.939 42.3594C272.939 41.0181 272.568 39.8381 271.702 38.9613L270.279 40.3668C270.678 40.7712 270.939 41.3881 270.939 42.3594H272.939ZM271.706 38.9657C270.825 38.0629 269.57 37.7031 268.143 37.7031V39.7031C269.262 39.7031 269.905 39.984 270.274 40.3624L271.706 38.9657ZM268.143 37.7031C266.687 37.7031 265.409 38.0211 264.427 38.7783L265.648 40.3623C266.165 39.9633 266.958 39.7031 268.143 39.7031V37.7031ZM264.427 38.7783C263.587 39.4253 262.938 40.1609 262.548 41.0008L264.362 41.843C264.582 41.3703 264.987 40.8716 265.648 40.3623L264.427 38.7783ZM263.791 40.4801L261.166 39.5426L260.494 41.4261L263.119 42.3636L263.791 40.4801ZM261.749 40.8783C262.165 39.9085 262.696 39.2048 263.32 38.7182L262.09 37.1412C261.151 37.8733 260.433 38.8727 259.911 40.0905L261.749 40.8783ZM263.321 38.7174C264.007 38.1808 264.744 37.8146 265.535 37.6083L265.031 35.6729C263.963 35.9511 262.981 36.4442 262.089 37.142L263.321 38.7174ZM265.541 37.6069C266.4 37.3777 267.235 37.2656 268.049 37.2656V35.2656C267.05 35.2656 266.041 35.4036 265.026 35.6744L265.541 37.6069ZM268.049 37.2656C268.549 37.2656 269.149 37.3268 269.857 37.4594L270.225 35.4937C269.433 35.3451 268.705 35.2656 268.049 35.2656V37.2656ZM269.868 37.4615C270.498 37.5718 271.113 37.8031 271.718 38.1661L272.747 36.4511C271.946 35.9703 271.1 35.6469 270.214 35.4916L269.868 37.4615ZM271.722 38.1686C272.255 38.4845 272.728 38.978 273.126 39.701L274.878 38.7365C274.338 37.7564 273.632 36.9764 272.743 36.4486L271.722 38.1686ZM273.126 39.701C273.484 40.3514 273.705 41.3058 273.705 42.6406H275.705C275.705 41.1161 275.457 39.7892 274.878 38.7365L273.126 39.701ZM273.705 42.6406V54.5H275.705V42.6406H273.705ZM274.705 53.5H271.939V55.5H274.705V53.5ZM272.939 54.5V52.0625H270.939V54.5H272.939ZM271.939 51.0625H271.799V53.0625H271.939V51.0625ZM270.897 51.6298C270.773 51.8881 270.539 52.2172 270.148 52.6156L271.575 54.0172C272.058 53.525 272.449 53.0182 272.7 52.4952L270.897 51.6298ZM270.148 52.6156C269.822 52.9472 269.358 53.2601 268.72 53.5345L269.51 55.3718C270.326 55.0211 271.025 54.5762 271.575 54.0172L270.148 52.6156ZM268.72 53.5345C268.152 53.779 267.408 53.9219 266.455 53.9219V55.9219C267.596 55.9219 268.626 55.7523 269.51 55.3718L268.72 53.5345ZM266.877 53.4375C268.1 53.4375 269.203 53.1972 270.14 52.6607L269.145 50.9253C268.582 51.2481 267.842 51.4375 266.877 51.4375V53.4375ZM270.136 52.6629C271.033 52.1543 271.743 51.4757 272.225 50.6196L270.482 49.6382C270.199 50.1415 269.768 50.5723 269.149 50.9231L270.136 52.6629ZM272.221 50.6272C272.694 49.803 272.939 48.9173 272.939 47.9844H270.939C270.939 48.5515 270.794 49.0954 270.487 49.6306L272.221 50.6272ZM272.939 47.9844V45.4531H270.939V47.9844H272.939ZM271.171 44.8129C271.208 44.769 271.237 44.7478 271.242 44.7444C271.247 44.7405 271.239 44.7468 271.211 44.7608C271.153 44.7901 271.049 44.832 270.884 44.8805L271.448 46.7992C271.682 46.7305 271.906 46.6494 272.105 46.5497C272.295 46.4551 272.525 46.313 272.708 46.0933L271.171 44.8129ZM270.896 44.8769C270.549 44.9743 270.132 45.0648 269.642 45.1464L269.971 47.1192C270.513 47.0289 271.002 46.9242 271.436 46.8028L270.896 44.8769ZM269.655 45.1444C269.154 45.2214 268.666 45.2906 268.19 45.352L268.446 47.3355C268.939 47.2719 269.443 47.2005 269.959 47.1212L269.655 45.1444ZM268.204 45.3503C267.725 45.4053 267.332 45.4528 267.028 45.4929L267.289 47.4758C267.578 47.4378 267.958 47.3916 268.432 47.3372L268.204 45.3503ZM267.029 45.4928C266.252 45.5942 265.515 45.7602 264.823 45.9939L265.462 47.8889C266.02 47.7008 266.627 47.5621 267.288 47.476L267.029 45.4928ZM264.83 45.9915C264.076 46.2396 263.423 46.6317 262.908 47.1883L264.377 48.546C264.628 48.2745 264.974 48.0495 265.455 47.8913L264.83 45.9915ZM262.908 47.1889C262.32 47.8261 262.08 48.6476 262.08 49.5312H264.08C264.08 49.0086 264.216 48.7208 264.377 48.5455L262.908 47.1889ZM262.08 49.5312C262.08 50.7777 262.563 51.8311 263.577 52.5331L264.716 50.8887C264.308 50.6064 264.08 50.2067 264.08 49.5312H262.08ZM263.588 52.5402C264.511 53.1626 265.63 53.4375 266.877 53.4375V51.4375C265.921 51.4375 265.219 51.2281 264.705 50.8817L263.588 52.5402ZM282.519 30.5H283.519V29.5H282.519V30.5ZM282.519 54.5V55.5H283.519V54.5H282.519ZM279.753 54.5H278.753V55.5H279.753V54.5ZM279.753 30.5V29.5H278.753V30.5H279.753ZM281.519 30.5V54.5H283.519V30.5H281.519ZM282.519 53.5H279.753V55.5H282.519V53.5ZM280.753 54.5V30.5H278.753V54.5H280.753ZM279.753 31.5H282.519V29.5H279.753V31.5ZM289.775 54.2773L289.35 55.1822L289.356 55.1851L289.775 54.2773ZM287.561 52.3906L286.726 52.9417L286.728 52.9453L287.561 52.3906ZM287.35 46.8828L288.194 47.4184L288.197 47.4137L287.35 46.8828ZM291.229 44.5391L291.442 45.5159L291.449 45.5144L291.229 44.5391ZM293.725 44.0938L293.597 43.1019L293.595 43.1022L293.725 44.0938ZM296.385 43.7773L296.488 44.7721L296.498 44.7709L296.385 43.7773ZM297.885 43.3906L297.395 42.5184L297.386 42.5237L297.885 43.3906ZM297.416 39.6641L296.7 40.3624L296.705 40.3668L297.416 39.6641ZM291.463 39.5703L292.073 40.3623L292.073 40.3623L291.463 39.5703ZM289.881 41.4219L289.545 42.3636L290.404 42.6705L290.788 41.843L289.881 41.4219ZM287.256 40.4844L286.337 40.0905L285.918 41.0683L286.92 41.4261L287.256 40.4844ZM289.131 37.9297L289.746 38.7182L289.747 38.7174L289.131 37.9297ZM291.709 36.6406L291.961 37.6083L291.967 37.6069L291.709 36.6406ZM296.467 36.4766L296.282 37.4595L296.294 37.4615L296.467 36.4766ZM298.658 37.3086L298.144 38.1661L298.148 38.1686L298.658 37.3086ZM300.428 39.2187L299.552 39.701L299.552 39.701L300.428 39.2187ZM301.131 54.5V55.5H302.131V54.5H301.131ZM298.365 54.5H297.365V55.5H298.365V54.5ZM298.365 52.0625H299.365V51.0625H298.365V52.0625ZM298.225 52.0625V51.0625H297.595L297.323 51.6298L298.225 52.0625ZM297.287 53.3164L298 54.0172L298 54.0172L297.287 53.3164ZM295.541 54.4531L295.146 53.5345L295.146 53.5345L295.541 54.4531ZM296.068 51.793L295.575 50.9231L295.571 50.9253L296.068 51.793ZM297.779 50.1289L296.912 49.6306L296.908 49.6382L297.779 50.1289ZM298.365 45.4531H299.365V42.6911L297.597 44.8129L298.365 45.4531ZM297.592 45.8398L297.861 46.8029L297.874 46.7992L297.592 45.8398ZM296.232 46.1328L296.384 47.1213L296.397 47.1192L296.232 46.1328ZM294.744 46.3437L294.858 47.3373L294.872 47.3355L294.744 46.3437ZM293.584 46.4844L293.713 47.476L293.714 47.4758L293.584 46.4844ZM291.568 46.9414L291.881 47.8913L291.888 47.8889L291.568 46.9414ZM290.068 47.8672L289.334 47.1883L289.334 47.1889L290.068 47.8672ZM290.572 51.7109L290.003 52.5332L290.013 52.5402L290.572 51.7109ZM292.881 53.9219C291.869 53.9219 290.979 53.7319 290.195 53.3696L289.356 55.1851C290.431 55.6821 291.612 55.9219 292.881 55.9219V53.9219ZM290.201 53.3725C289.429 53.0091 288.834 52.4982 288.393 51.8359L286.728 52.9453C287.381 53.9237 288.262 54.6705 289.35 55.1822L290.201 53.3725ZM288.395 51.8396C287.974 51.2027 287.74 50.4027 287.74 49.3906H285.74C285.74 50.7223 286.053 51.9223 286.726 52.9417L288.395 51.8396ZM287.74 49.3906C287.74 48.483 287.92 47.851 288.194 47.4184L286.505 46.3473C285.967 47.1959 285.74 48.2358 285.74 49.3906H287.74ZM288.197 47.4137C288.511 46.9133 288.925 46.525 289.454 46.2392L288.503 44.4796C287.673 44.9281 287.001 45.5555 286.502 46.3519L288.197 47.4137ZM289.454 46.2392C290.045 45.9201 290.706 45.6773 291.442 45.5159L291.015 43.5622C290.111 43.7602 289.272 44.0643 288.503 44.4796L289.454 46.2392ZM291.449 45.5144C292.248 45.3336 293.049 45.1906 293.854 45.0853L293.595 43.1022C292.728 43.2156 291.866 43.3695 291.008 43.5637L291.449 45.5144ZM293.852 45.0856C294.942 44.9455 295.82 44.8411 296.488 44.772L296.282 42.7827C295.591 42.8542 294.695 42.9608 293.597 43.1019L293.852 45.0856ZM296.498 44.7709C297.219 44.689 297.887 44.5426 298.383 44.2575L297.386 42.5237C297.257 42.598 296.926 42.7095 296.272 42.7837L296.498 44.7709ZM298.374 44.2628C299.082 43.8657 299.365 43.1692 299.365 42.4531H297.365C297.365 42.5586 297.346 42.583 297.355 42.5654C297.36 42.5563 297.368 42.544 297.379 42.5324C297.39 42.5211 297.398 42.5171 297.396 42.5185L298.374 44.2628ZM299.365 42.4531V42.3594H297.365V42.4531H299.365ZM299.365 42.3594C299.365 41.0181 298.994 39.8381 298.127 38.9613L296.705 40.3668C297.104 40.7712 297.365 41.3881 297.365 42.3594H299.365ZM298.132 38.9657C297.251 38.0629 295.996 37.7031 294.568 37.7031V39.7031C295.688 39.7031 296.331 39.984 296.7 40.3624L298.132 38.9657ZM294.568 37.7031C293.113 37.7031 291.835 38.0211 290.852 38.7783L292.073 40.3623C292.591 39.9633 293.384 39.7031 294.568 39.7031V37.7031ZM290.852 38.7783C290.013 39.4253 289.364 40.1609 288.974 41.0008L290.788 41.843C291.007 41.3703 291.413 40.8716 292.073 40.3623L290.852 38.7783ZM290.217 40.4801L287.592 39.5426L286.92 41.4261L289.545 42.3636L290.217 40.4801ZM288.175 40.8783C288.591 39.9085 289.122 39.2048 289.746 38.7182L288.516 37.1412C287.577 37.8733 286.859 38.8727 286.337 40.0905L288.175 40.8783ZM289.747 38.7174C290.433 38.1808 291.169 37.8146 291.961 37.6083L291.457 35.6729C290.389 35.9511 289.407 36.4442 288.515 37.142L289.747 38.7174ZM291.967 37.6069C292.826 37.3777 293.661 37.2656 294.475 37.2656V35.2656C293.475 35.2656 292.467 35.4036 291.451 35.6744L291.967 37.6069ZM294.475 37.2656C294.975 37.2656 295.575 37.3268 296.283 37.4594L296.651 35.4937C295.858 35.3451 295.131 35.2656 294.475 35.2656V37.2656ZM296.294 37.4615C296.923 37.5718 297.539 37.8031 298.144 38.1661L299.173 36.4511C298.371 35.9703 297.526 35.6469 296.639 35.4916L296.294 37.4615ZM298.148 38.1686C298.68 38.4845 299.154 38.978 299.552 39.701L301.304 38.7365C300.764 37.7564 300.058 36.9764 299.169 36.4486L298.148 38.1686ZM299.552 39.701C299.91 40.3514 300.131 41.3058 300.131 42.6406H302.131C302.131 41.1161 301.883 39.7892 301.304 38.7365L299.552 39.701ZM300.131 42.6406V54.5H302.131V42.6406H300.131ZM301.131 53.5H298.365V55.5H301.131V53.5ZM299.365 54.5V52.0625H297.365V54.5H299.365ZM298.365 51.0625H298.225V53.0625H298.365V51.0625ZM297.323 51.6298C297.199 51.8881 296.965 52.2172 296.574 52.6156L298 54.0172C298.484 53.525 298.875 53.0182 299.126 52.4952L297.323 51.6298ZM296.574 52.6156C296.248 52.9472 295.784 53.2601 295.146 53.5345L295.936 55.3718C296.751 55.0211 297.451 54.5762 298 54.0172L296.574 52.6156ZM295.146 53.5345C294.578 53.779 293.834 53.9219 292.881 53.9219V55.9219C294.022 55.9219 295.051 55.7523 295.936 55.3718L295.146 53.5345ZM293.303 53.4375C294.525 53.4375 295.629 53.1972 296.565 52.6607L295.571 50.9253C295.008 51.2481 294.268 51.4375 293.303 51.4375V53.4375ZM296.562 52.6629C297.459 52.1543 298.168 51.4757 298.651 50.6196L296.908 49.6382C296.625 50.1415 296.194 50.5723 295.575 50.9231L296.562 52.6629ZM298.646 50.6272C299.12 49.803 299.365 48.9173 299.365 47.9844H297.365C297.365 48.5515 297.22 49.0954 296.912 49.6306L298.646 50.6272ZM299.365 47.9844V45.4531H297.365V47.9844H299.365ZM297.597 44.8129C297.634 44.769 297.663 44.7478 297.667 44.7444C297.673 44.7405 297.665 44.7468 297.637 44.7608C297.578 44.7901 297.475 44.832 297.31 44.8805L297.874 46.7992C298.107 46.7305 298.332 46.6494 298.531 46.5497C298.72 46.4551 298.95 46.313 299.133 46.0933L297.597 44.8129ZM297.322 44.8769C296.974 44.9743 296.558 45.0648 296.068 45.1464L296.397 47.1192C296.938 47.0289 297.428 46.9242 297.861 46.8028L297.322 44.8769ZM296.08 45.1444C295.58 45.2214 295.092 45.2906 294.616 45.352L294.872 47.3355C295.365 47.2719 295.869 47.2005 296.384 47.1212L296.08 45.1444ZM294.63 45.3503C294.151 45.4053 293.758 45.4528 293.454 45.4929L293.714 47.4758C294.004 47.4378 294.384 47.3916 294.858 47.3372L294.63 45.3503ZM293.455 45.4928C292.677 45.5942 291.941 45.7602 291.249 45.9939L291.888 47.8889C292.446 47.7008 293.053 47.5621 293.713 47.476L293.455 45.4928ZM291.256 45.9915C290.502 46.2396 289.849 46.6317 289.334 47.1883L290.803 48.546C291.054 48.2745 291.4 48.0495 291.881 47.8913L291.256 45.9915ZM289.334 47.1889C288.745 47.8261 288.506 48.6476 288.506 49.5312H290.506C290.506 49.0086 290.641 48.7208 290.803 48.5455L289.334 47.1889ZM288.506 49.5312C288.506 50.7777 288.989 51.8311 290.003 52.5331L291.141 50.8887C290.734 50.6064 290.506 50.2067 290.506 49.5312H288.506ZM290.013 52.5402C290.937 53.1626 292.056 53.4375 293.303 53.4375V51.4375C292.346 51.4375 291.645 51.2281 291.131 50.8817L290.013 52.5402ZM308.241 36.5L309.104 35.9944L308.814 35.5H308.241V36.5ZM312.554 43.8594L311.691 44.365L312.554 45.8373L313.416 44.365L312.554 43.8594ZM316.866 36.5V35.5H316.293L316.003 35.9944L316.866 36.5ZM320.054 36.5L320.894 37.0425L321.89 35.5H320.054V36.5ZM314.241 45.5L313.401 44.9575L313.051 45.5L313.401 46.0425L314.241 45.5ZM320.054 54.5V55.5H321.89L320.894 53.9575L320.054 54.5ZM316.866 54.5L316.015 55.0254L316.308 55.5H316.866V54.5ZM312.554 47.5156L313.405 46.9903L312.554 45.6122L311.703 46.9903L312.554 47.5156ZM308.241 54.5V55.5H308.799L309.092 55.0254L308.241 54.5ZM305.054 54.5L304.21 53.9637L303.233 55.5H305.054V54.5ZM310.772 45.5L311.616 46.0363L311.957 45.5L311.616 44.9637L310.772 45.5ZM305.054 36.5V35.5H303.233L304.21 37.0363L305.054 36.5ZM307.378 37.0056L311.691 44.365L313.416 43.3538L309.104 35.9944L307.378 37.0056ZM313.416 44.365L317.729 37.0056L316.003 35.9944L311.691 43.3538L313.416 44.365ZM316.866 37.5H320.054V35.5H316.866V37.5ZM319.214 35.9575L313.401 44.9575L315.081 46.0425L320.894 37.0425L319.214 35.9575ZM313.401 46.0425L319.214 55.0425L320.894 53.9575L315.081 44.9575L313.401 46.0425ZM320.054 53.5H316.866V55.5H320.054V53.5ZM317.717 53.9746L313.405 46.9903L311.703 48.041L316.015 55.0254L317.717 53.9746ZM311.703 46.9903L307.39 53.9746L309.092 55.0254L313.405 48.041L311.703 46.9903ZM308.241 53.5H305.054V55.5H308.241V53.5ZM305.898 55.0363L311.616 46.0363L309.928 44.9637L304.21 53.9637L305.898 55.0363ZM311.616 44.9637L305.898 35.9637L304.21 37.0363L309.928 46.0363L311.616 44.9637ZM305.054 37.5H308.241V35.5H305.054V37.5ZM324.527 61.1328L324.735 60.1547L324.725 60.1526L324.715 60.1507L324.527 61.1328ZM323.766 60.9219L322.805 60.6447L322.574 61.4442L323.318 61.8163L323.766 60.9219ZM324.469 58.4844L324.717 57.5156L323.777 57.2752L323.508 58.2072L324.469 58.4844ZM326.25 58.6719L326.159 57.676L326.159 57.676L326.25 58.6719ZM327.621 57.9805L326.914 57.2734L326.907 57.2802L326.901 57.2871L327.621 57.9805ZM328.734 56L329.673 56.345L329.673 56.3443L328.734 56ZM329.25 54.5938L330.189 54.938L330.315 54.5932L330.189 54.2485L329.25 54.5938ZM322.594 36.5V35.5H321.16L321.655 36.8453L322.594 36.5ZM325.594 36.5L326.539 36.1727L326.306 35.5H325.594V36.5ZM330.563 50.8437L329.618 51.1711L329.851 51.8437H330.563V50.8437ZM330.75 50.8437V51.8437H331.462L331.695 51.1711L330.75 50.8437ZM335.719 36.5V35.5H335.007L334.774 36.1727L335.719 36.5ZM338.719 36.5L339.656 36.8474L340.156 35.5H338.719V36.5ZM331.078 57.125L330.14 56.7776L330.14 56.7782L331.078 57.125ZM329.801 59.4336L329.033 58.7934L329.029 58.7982L329.801 59.4336ZM328.031 60.8047L327.627 59.89L327.623 59.8918L328.031 60.8047ZM325.781 60.25C325.366 60.25 325.02 60.2152 324.735 60.1547L324.319 62.1109C324.769 62.2067 325.259 62.25 325.781 62.25V60.25ZM324.715 60.1507C324.548 60.1187 324.421 60.0893 324.328 60.0636C324.228 60.0358 324.2 60.0209 324.213 60.0274L323.318 61.8163C323.595 61.9545 323.972 62.0446 324.339 62.115L324.715 60.1507ZM324.726 61.199L325.43 58.7615L323.508 58.2072L322.805 60.6447L324.726 61.199ZM324.221 59.4532C324.968 59.6443 325.68 59.7278 326.341 59.6678L326.159 57.676C325.789 57.7097 325.313 57.6682 324.717 57.5156L324.221 59.4532ZM326.341 59.6678C327.123 59.5967 327.796 59.2408 328.342 58.6738L326.901 57.2871C326.649 57.5482 326.409 57.6533 326.159 57.676L326.341 59.6678ZM328.328 58.6876C328.885 58.1312 329.317 57.3131 329.673 56.345L327.796 55.655C327.48 56.515 327.17 57.0173 326.914 57.2734L328.328 58.6876ZM329.673 56.3443L330.189 54.938L328.311 54.2495L327.795 55.6557L329.673 56.3443ZM330.189 54.2485L323.532 36.1547L321.655 36.8453L328.311 54.939L330.189 54.2485ZM322.594 37.5H325.594V35.5H322.594V37.5ZM324.649 36.8273L329.618 51.1711L331.507 50.5164L326.539 36.1727L324.649 36.8273ZM330.563 51.8437H330.75V49.8437H330.563V51.8437ZM331.695 51.1711L336.664 36.8273L334.774 36.1727L329.805 50.5164L331.695 51.1711ZM335.719 37.5H338.719V35.5H335.719V37.5ZM337.781 36.1526L330.14 56.7776L332.016 57.4724L339.656 36.8474L337.781 36.1526ZM330.14 56.7782C329.826 57.6267 329.452 58.2902 329.033 58.7934L330.569 60.0738C331.165 59.3583 331.642 58.4827 332.016 57.4718L330.14 56.7782ZM329.029 58.7982C328.611 59.3057 328.144 59.6617 327.627 59.89L328.435 61.7194C329.262 61.354 329.975 60.7959 330.573 60.069L329.029 58.7982ZM327.623 59.8918C327.105 60.1233 326.497 60.25 325.781 60.25V62.25C326.737 62.25 327.629 62.0798 328.439 61.7176L327.623 59.8918Z" fill="white"/>
<circle cx="44.5784" cy="42.5" r="30.1395" stroke="#9EB2B7" stroke-dasharray="2 2"/>
<circle cx="44.5784" cy="42.5" r="39.9006" stroke="#9EB2B7" stroke-dasharray="2 2"/>
<circle cx="44.5784" cy="42.5" r="23.8869" fill="#FF7400"/>
<path fill-rule="evenodd" clip-rule="evenodd" d="M66.064 32.0497C61.8902 28.4814 56.4718 26.3266 50.5501 26.3266C37.3577 26.3266 26.6632 37.0211 26.6632 50.2135C26.6632 53.9611 27.5263 57.5072 29.0645 60.6637C23.9399 56.2826 20.6915 49.7706 20.6915 42.5C20.6915 29.3077 31.386 18.6131 44.5784 18.6131C54.0231 18.6131 62.1876 24.0946 66.064 32.0497Z" fill="#D15F00"/>
<circle cx="73.7625" cy="15.1414" r="6.04845" transform="rotate(-30 73.7625 15.1414)" fill="#87D2F3"/>
<path fill-rule="evenodd" clip-rule="evenodd" d="M77.1509 10.1296C75.7839 9.87552 74.3229 10.089 73.0243 10.8387C70.1314 12.509 69.1402 16.2081 70.8105 19.1011C71.2849 19.9229 71.9231 20.5912 72.6601 21.0887C70.9816 20.7768 69.4449 19.76 68.5243 18.1656C66.8541 15.2727 67.8453 11.5735 70.7382 9.9033C72.8094 8.70754 75.2937 8.87589 77.1509 10.1296Z" fill="#2E9CCD"/>
<circle cx="7.40781" cy="55.4373" r="6.04845" transform="rotate(-15 7.40781 55.4373)" fill="#8A83E0"/>
<path fill-rule="evenodd" clip-rule="evenodd" d="M11.978 51.4732C10.7233 50.874 9.25681 50.702 7.80846 51.0901C4.58182 51.9547 2.66698 55.2713 3.53156 58.4979C3.77717 59.4146 4.22065 60.2253 4.80374 60.8966C3.26322 60.1608 2.04195 58.781 1.56545 57.0027C0.700877 53.7761 2.61571 50.4595 5.84236 49.5949C8.15239 48.9759 10.5085 49.7815 11.978 51.4732Z" fill="#1D1391"/>
</svg>
